<svg xmlns="http://www.w3.org/2000/svg" viewBox="0 0 226.38 271.63"><defs><style>.cls-1{fill:#e9e9ea;}.cls-2{fill:#fff;}.cls-3{fill:#2a5183;}.cls-4{fill:#a8d1ef;}</style></defs><g id="Layer_2" data-name="Layer 2"><g id="Layer_1-2" data-name="Layer 1"><g id="Layer_1-2-2" data-name="Layer 1-2"><circle class="cls-1" cx="126.52" cy="167.52" r="99.86"/><path class="cls-2" d="M126.52,67.66C91.67,66.38,61.93,93.15,60.23,128A63.35,63.35,0,0,0,78.5,175.59a42.51,42.51,0,0,1,12.32,28.47v8.08h65.45v-7.65a38.83,38.83,0,0,1,11.47-27.62,62.38,62.38,0,0,0,19.12-45.05A64.23,64.23,0,0,0,126.52,67.66Z"/><path class="cls-3" d="M158.81,213.41h-8.49v-7.22a40.44,40.44,0,0,1,12.38-29.44c10.51-10.12,16.54-24.16,16.94-39.51V137a55.86,55.86,0,0,0-13.23-40.74,56.45,56.45,0,0,0-38.16-19.72A55.88,55.88,0,0,0,67.87,127.9l0,.2a32.64,32.64,0,0,0,0,8.72l0,.53a55.63,55.63,0,0,0,16.18,39.06,42.05,42.05,0,0,1,12.71,29.78v7.22H88.28v-7.22a33.66,33.66,0,0,0-10.23-23.77,64.19,64.19,0,0,1-18.67-44.81,42.08,42.08,0,0,1,0-10.46A64.39,64.39,0,0,1,129,68.1a64.91,64.91,0,0,1,59.11,69.47c-.49,17.55-7.43,33.65-19.57,45.33a31.94,31.94,0,0,0-9.75,23.29Z"/><path class="cls-2" d="M83.6,118.23A42.89,42.89,0,0,1,113.35,94"/><path class="cls-4" d="M87.48,120l-7.76-3.47a47.35,47.35,0,0,1,32.69-26.63l1.87,8.29A38.82,38.82,0,0,0,87.48,120Z"/><path class="cls-2" d="M80.2,134.8a47.58,47.58,0,0,1,.85-8.08"/><path class="cls-4" d="M84.45,134.8H76a50.44,50.44,0,0,1,.91-8.78l8.38,1.4A44,44,0,0,0,84.45,134.8Z"/><polygon class="cls-3" points="131.62 271.63 115.9 271.63 107.4 263.56 101.02 263.56 101.02 255.06 110.79 255.06 119.29 263.13 128.22 263.13 136.72 255.06 146.49 255.06 146.49 263.56 140.11 263.56 131.62 271.63"/><rect class="cls-3" x="88.7" y="221.91" width="70.12" height="8.5"/><rect class="cls-3" x="88.7" y="238.48" width="70.12" height="8.5"/></g><rect class="cls-3" x="18.12" y="56.82" width="8.5" height="47.98" transform="translate(-57.42 55.05) rotate(-56.63)"/><rect class="cls-3" x="87.41" y="0.36" width="8.5" height="47.98" transform="translate(-3.03 18.98) rotate(-11.63)"/><rect class="cls-3" x="156.57" y="29.18" width="47.98" height="8.5" transform="translate(53.33 165.83) rotate(-56.63)"/></g></g></svg>