<svg xmlns="http://www.w3.org/2000/svg" viewBox="0 0 232.24 232.39"><defs><style>.cls-1{fill:#e9e9ea;}.cls-2{fill:#fff;}.cls-3{fill:#2a5183;}.cls-4{fill:#bef381;}.cls-5,.cls-7{fill:#7ac43d;}.cls-5{stroke:#2c5282;stroke-miterlimit:10;stroke-width:4.99px;}.cls-6{opacity:0.5;}</style></defs><g id="Layer_2" data-name="Layer 2"><g id="Layer_1-2" data-name="Layer 1"><circle class="cls-1" cx="116.12" cy="116.12" r="116.12"/><rect class="cls-2" x="65.56" y="154.11" width="132.39" height="55.23" transform="translate(-49.59 49.45) rotate(-17.95)"/><path class="cls-3" d="M75.25,232.39l-19-58.58,132-42.76,19,58.59Zm-11-54.49,15.06,46.48,119.89-38.83-15-46.49Z"/><circle class="cls-2" cx="131.79" cy="181.81" r="16.79"/><path class="cls-4" d="M131.8,201.78a20,20,0,0,1-19-13.81h0a20,20,0,1,1,36.78,2.93,20,20,0,0,1-17.77,10.88Zm-13-15.77a13.61,13.61,0,1,0,8.75-17.15A13.62,13.62,0,0,0,118.84,186Z"/><circle class="cls-4" cx="76.08" cy="183.52" r="6.77"/><circle class="cls-4" cx="175.99" cy="151.16" r="6.77"/><circle class="cls-4" cx="86.04" cy="214.28" r="4.99"/><circle class="cls-4" cx="185.95" cy="181.92" r="4.99"/><rect class="cls-2" x="20.33" y="141.76" width="132.39" height="55.23" transform="matrix(0.96, 0.26, -0.26, 0.96, 47.68, -16.81)"/><path class="cls-3" d="M145.34,217.35,11.49,180.79l16.23-59.4,133.84,36.55Zm-126-41,121.58,33.21,12.87-47.14L32.18,129.19Z"/><circle class="cls-2" cx="86.5" cy="169.46" r="16.79"/><path class="cls-4" d="M86.53,189.44A20,20,0,0,1,67.24,164.2h0a20,20,0,1,1,19.29,25.24ZM73.37,165.87a13.61,13.61,0,1,0,6.38-8.23,13.54,13.54,0,0,0-6.38,8.23Z"/><circle class="cls-4" cx="38.97" cy="140.36" r="6.77"/><circle class="cls-4" cx="140.28" cy="168.04" r="6.77"/><circle class="cls-4" cx="30.45" cy="171.56" r="4.99"/><circle class="cls-4" cx="131.76" cy="199.23" r="4.99"/><path class="cls-5" d="M107.39,164.44V147.19a61.93,61.93,0,0,1-16-4.23A46.85,46.85,0,0,1,77,134.07l11-17.08a57.9,57.9,0,0,0,12.51,7.51,31.07,31.07,0,0,0,12.16,2.5q7.24,0,10.61-2.93t3.37-9a9.92,9.92,0,0,0-3.37-7.59,44.43,44.43,0,0,0-8.45-6q-5.09-2.85-11-5.69A61,61,0,0,1,93,89a36,36,0,0,1-8.46-9.32,24.15,24.15,0,0,1-3.36-13.11q0-12.76,7-21.14t19.23-10.78V16.92h16.74V34.34a38.07,38.07,0,0,1,14.49,5,53.53,53.53,0,0,1,11.22,9.14L137.07,63a39.16,39.16,0,0,0-9-6.47,21.71,21.71,0,0,0-9.84-2.16q-6.21,0-9.49,2.59T105.5,65.4a8.83,8.83,0,0,0,3.36,7,43.46,43.46,0,0,0,8.45,5.43q5.1,2.59,11,5.35a58.3,58.3,0,0,1,11,6.73,34.65,34.65,0,0,1,8.45,9.58q3.38,5.61,3.37,13.89,0,12.42-6.73,21.31T124.13,146.5v17.94Z"/><g class="cls-6"><path class="cls-7" d="M49.41,95V85.36A34.77,34.77,0,0,1,40.51,83a26.1,26.1,0,0,1-8-5l6.16-9.52a31.78,31.78,0,0,0,7,4.18,17.33,17.33,0,0,0,6.78,1.4q4.05,0,5.92-1.64a6.28,6.28,0,0,0,1.88-5,5.53,5.53,0,0,0-1.88-4.23,24.57,24.57,0,0,0-4.71-3.32c-1.9-1.06-3.93-2.12-6.11-3.18a34,34,0,0,1-6.11-3.8,20.06,20.06,0,0,1-4.72-5.19,13.5,13.5,0,0,1-1.87-7.32,17.74,17.74,0,0,1,3.89-11.78,18,18,0,0,1,10.73-6V12.71h9.33v9.72a21.26,21.26,0,0,1,8.09,2.79,29.69,29.69,0,0,1,6.25,5.1L66,38.4a22.46,22.46,0,0,0-5-3.61,12.17,12.17,0,0,0-5.49-1.2A8.4,8.4,0,0,0,50.18,35q-1.83,1.45-1.83,4.72a4.93,4.93,0,0,0,1.88,3.9,25.25,25.25,0,0,0,4.71,3q2.84,1.44,6.11,3a32.62,32.62,0,0,1,6.11,3.75,19.31,19.31,0,0,1,4.72,5.34,14.85,14.85,0,0,1,1.87,7.75A19.1,19.1,0,0,1,70,78.38q-3.75,5-11.26,6.59V95Z"/></g><g class="cls-6"><path class="cls-7" d="M173.49,95V85.36a34.77,34.77,0,0,1-8.9-2.36,26.1,26.1,0,0,1-8-5l6.15-9.52a32.06,32.06,0,0,0,7,4.18,17.33,17.33,0,0,0,6.78,1.4q4,0,5.92-1.64a6.28,6.28,0,0,0,1.88-5,5.53,5.53,0,0,0-1.88-4.23,24.57,24.57,0,0,0-4.71-3.32c-1.9-1.06-3.93-2.12-6.11-3.18a33.6,33.6,0,0,1-6.11-3.8,20.06,20.06,0,0,1-4.72-5.19,13.5,13.5,0,0,1-1.88-7.32,17.75,17.75,0,0,1,3.9-11.78,18,18,0,0,1,10.73-6V12.71h9.33v9.72a21.26,21.26,0,0,1,8.09,2.79,29.69,29.69,0,0,1,6.25,5.1L190,38.4a22.46,22.46,0,0,0-5-3.61,12.17,12.17,0,0,0-5.49-1.2A8.4,8.4,0,0,0,174.26,35q-1.83,1.45-1.83,4.72a4.93,4.93,0,0,0,1.88,3.9,25.25,25.25,0,0,0,4.71,3q2.83,1.44,6.11,3a32.62,32.62,0,0,1,6.11,3.75A19.47,19.47,0,0,1,196,58.75a14.85,14.85,0,0,1,1.87,7.75,19.1,19.1,0,0,1-3.75,11.88q-3.75,5-11.26,6.59V95Z"/></g></g></g></svg>