<?xml version="1.0" encoding="utf-8"?>
<!-- Generator: Adobe Illustrator 25.2.0, SVG Export Plug-In . SVG Version: 6.00 Build 0)  -->
<svg version="1.1" xmlns="http://www.w3.org/2000/svg" xmlns:xlink="http://www.w3.org/1999/xlink" x="0px" y="0px"
	 viewBox="0 0 90.9 59.1" enable-background="new 0 0 90.9 59.1" xml:space="preserve">
<g id="background">
</g>
<g id="Layer_1">
</g>
<g id="contact">
	<g>
		<path fill="#002A5C" d="M20.7,2.4l-0.1,14.9c0,6.2-3.9,8.6-9.1,8.6C7,25.9,1.3,24,1.3,17.6V2.4c0-0.8-0.6-1.3-1.2-1.6h7.4
			C6.8,1.1,6.3,1.6,6.3,2.4v15.3c0,2.6,0.9,6.2,5.9,6.2c4.6,0,6.2-2.8,6.2-6.5l-0.1-15c0-0.8-0.5-1.3-1-1.6h4.4
			C21.1,1.1,20.7,1.6,20.7,2.4L20.7,2.4z"/>
		<g>
			<defs>
				<rect id="SVGID_21_" x="0" width="90.9" height="59.1"/>
			</defs>
			<clipPath id="SVGID_2_">
				<use xlink:href="#SVGID_21_"  overflow="visible"/>
			</clipPath>
			<path clip-path="url(#SVGID_2_)" fill="none" stroke="#002A5C" stroke-width="0.4602" d="M20.7,2.4l-0.1,14.9
				c0,6.2-3.9,8.6-9.1,8.6C7,25.9,1.3,24,1.3,17.6V2.4c0-0.8-0.6-1.3-1.2-1.6h7.4C6.8,1.1,6.3,1.6,6.3,2.4v15.3
				c0,2.6,0.9,6.2,5.9,6.2c4.6,0,6.2-2.8,6.2-6.5l-0.1-15c0-0.8-0.5-1.3-1-1.6h4.4C21.1,1.1,20.7,1.6,20.7,2.4L20.7,2.4z"/>
		</g>
		<path fill="#002A5C" d="M31.1,25.9c-3.5,0-6-1.1-7.4-1.7L23.5,18c0.7,2.6,3,6,7,6c3.8,0,4.9-2.6,4.9-4.4c0-3.5-3.3-4-6.8-5.8
			c-3.5-1.9-5.1-3.8-5.1-6.6c0-5,4.9-6.9,8.3-6.9c1.3,0,3.8,0.3,5.8,1.3l0.2,5.4c-0.5-1.9-2.7-4.8-6.4-4.8c-2.9,0-4.1,1.9-4.1,3.5
			c0,2.2,1.6,3.1,5.2,4.6c3.6,1.6,7.3,2.8,7.3,7.9C40,22.8,35.8,25.9,31.1,25.9L31.1,25.9z"/>
		<path fill="#002A5C" d="M51.9,2.6c-0.9,0-2.9,0-3.5,0.1v21c0.9,0,2.3,0,3.1,0c8.7,0,11.1-5.5,11.1-10.9
			C62.5,8.4,59.8,2.6,51.9,2.6L51.9,2.6z M52.4,25.6h-9.8c0.6-0.3,1-0.8,1-1.6V2.4c0-0.8-0.4-1.3-1-1.6h10.2
			c12.6,0,15.1,8.5,15.1,12C67.8,19.1,62.7,25.6,52.4,25.6L52.4,25.6z"/>
		<path fill="#002A5C" d="M76.7,7.9c0,0-2.6,6.2-3.8,8.9h7.7C78.8,12.8,76.7,7.9,76.7,7.9L76.7,7.9z M82.7,25.6c1-0.5,1.2-1,0.9-1.8
			c-0.1-0.4-1.1-2.6-2.2-5.1h-9.4c-1.1,2.5-2.1,4.6-2.1,5c-0.3,0.9-0.2,1.4,0.9,1.8h-5.3c1.1-0.7,1.4-1.1,1.8-1.8
			C68.1,22.4,78.1,0,78.1,0S88.3,22.4,89,23.8c0.4,0.8,0.7,1.2,1.9,1.8H82.7L82.7,25.6z"/>
		<path fill="#005941" d="M89.8,29.1c0,0-55.7-1.3-88.7,15.4c0,0,35-13.2,88.7-11.9V29.1L89.8,29.1z"/>
		<path fill="none" stroke="#005941" stroke-width="0.4602" d="M89.8,29.1c0,0-55.7-1.3-88.7,15.4c0,0,35-13.2,88.7-11.9V29.1
			L89.8,29.1z"/>
		<path fill="#005941" d="M1,29.1c0,0,18.8,0.2,30.4,4.3c0,0-23.9-1.9-30.4-0.9V29.1L1,29.1z"/>
		<path fill="#005941" d="M1,34.9c0,0,13.4-0.6,21.5,0.2c0,0-19.6,2.3-21.5,3.2V34.9L1,34.9z"/>
		<path fill="none" stroke="#005941" stroke-width="0.4602" d="M1,34.9c0,0,13.4-0.6,21.5,0.2c0,0-19.6,2.3-21.5,3.2V34.9L1,34.9z"
			/>
		<path fill="#005941" d="M80.5,35.5l-0.3,0C64,35.8,30.1,37.6,1.1,47.4v11.8l88.7,0V35.5C89.8,35.5,86.3,35.4,80.5,35.5L80.5,35.5z
			"/>
	</g>
</g>
</svg>
