<?xml version="1.0" encoding="utf-8"?>
<!-- Generator: Adobe Illustrator 25.2.1, SVG Export Plug-In . SVG Version: 6.00 Build 0)  -->
<svg version="1.1" xmlns="http://www.w3.org/2000/svg" xmlns:xlink="http://www.w3.org/1999/xlink" x="0px" y="0px"
	 viewBox="0 0 250.8 250.8" enable-background="new 0 0 250.8 250.8" xml:space="preserve">
<g id="Layer_1">
	<g>
		<g>
			<path fill="#E5C903" d="M125.4,42.7V0.1c-22.1,0-41.4,5-60.7,15.7L85.3,53C97.2,46.4,110.8,42.7,125.4,42.7"/>
			<path fill="#FFFFFF" d="M85.2,53.2L85.2,53L64.5,15.8l0.1-0.1C84,5,103.3,0,125.4,0h0.1v42.8h-0.1c-14,0-27.9,3.6-40.1,10.3
				L85.2,53.2z M64.8,15.9l20.5,36.9c12.2-6.7,26-10.3,40-10.3V0.2C103.3,0.3,84.1,5.2,64.8,15.9z"/>
		</g>
		<g>
			<path fill="#7AC43D" d="M85.3,53L64.7,15.8C38,30.6,19.4,52.1,8.4,80.5l39.4,15.1C55,77.4,68.3,62.3,85.3,53"/>
			<path fill="#FFFFFF" d="M48,95.8l-0.1,0L8.3,80.6l0-0.1C13.8,66.3,21.2,53.7,30.6,43c9.3-10.7,20.8-19.9,34-27.2l0.1-0.1l0.1,0.1
				L85.4,53l-0.1,0.1C68.3,62.5,55,77.6,48,95.7L48,95.8z M8.6,80.4l39.2,15.1c7.1-18,20.3-33.1,37.3-42.6L64.6,16
				C51.4,23.3,40,32.5,30.8,43.1C21.5,53.8,14,66.4,8.6,80.4z"/>
		</g>
		<g>
			<path fill="#1073BA" d="M125.4,0.1v42.5c45.9,0,83.2,37.2,83.2,83.2c0,45.9-37.2,83.2-83.2,83.2c-45.9,0-83.2-37.2-83.2-83.2
				c0-10.6,2-20.8,5.6-30.2L8.4,80.5c-6,15.5-8.3,28.3-8.3,44.9c0,69.2,56.1,125.3,125.3,125.3s125.3-56.1,125.3-125.3
				C250.7,56.2,194.6,0.1,125.4,0.1"/>
			<path fill="#FFFFFF" d="M125.4,250.8c-16.9,0-33.4-3.3-48.8-9.9c-14.9-6.3-28.3-15.4-39.9-26.9c-11.5-11.5-20.6-24.9-26.9-39.9
				C3.3,158.8,0,142.3,0,125.4c0-16.7,2.3-29.3,8.3-44.9l0-0.1l0.1,0L48,95.6l0,0.1c-3.7,9.6-5.6,19.7-5.6,30.1
				c0,22.2,8.6,43,24.3,58.7c15.7,15.7,36.5,24.3,58.7,24.3c22.2,0,43-8.6,58.7-24.3c15.7-15.7,24.3-36.5,24.3-58.7
				c0-22.2-8.6-43-24.3-58.7c-15.7-15.7-36.5-24.3-58.7-24.3h-0.1V0h0.1c16.9,0,33.4,3.3,48.8,9.9c14.9,6.3,28.3,15.4,39.9,26.9
				c11.5,11.5,20.6,24.9,26.9,39.9c6.5,15.5,9.9,31.9,9.9,48.8c0,16.9-3.3,33.4-9.9,48.8c-6.3,14.9-15.4,28.3-26.9,39.9
				c-11.5,11.5-24.9,20.6-39.9,26.9C158.8,247.5,142.3,250.8,125.4,250.8z M8.5,80.7c-5.9,15.5-8.3,28.1-8.3,44.7
				c0,16.9,3.3,33.3,9.8,48.7c6.3,14.9,15.3,28.3,26.8,39.8c11.5,11.5,24.9,20.5,39.8,26.8c15.4,6.5,31.8,9.8,48.7,9.8
				s33.3-3.3,48.7-9.8c14.9-6.3,28.3-15.3,39.8-26.8c11.5-11.5,20.5-24.9,26.8-39.8c6.5-15.4,9.8-31.8,9.8-48.7
				c0-16.9-3.3-33.3-9.8-48.7c-6.3-14.9-15.3-28.3-26.8-39.8S189,16.4,174.1,10.1c-15.4-6.5-31.7-9.8-48.6-9.8v42.3
				c22.2,0,43.1,8.7,58.8,24.4c15.7,15.7,24.4,36.6,24.4,58.9c0,22.2-8.7,43.2-24.4,58.9c-15.7,15.7-36.6,24.4-58.9,24.4
				c-22.2,0-43.2-8.7-58.9-24.4c-15.7-15.7-24.4-36.6-24.4-58.9c0-10.4,1.9-20.5,5.6-30.1L8.5,80.7z"/>
		</g>
		<g>
			<path fill="#1073BA" d="M85.7,101.8c-0.7-1.2-1.3-2.5-1.7-3.8s-0.6-2.8-0.6-4.4s0.2-3,0.6-4.4c0.4-1.3,1-2.6,1.7-3.8l0.9,0.4
				c-0.7,1.2-1.2,2.4-1.6,3.7c-0.3,1.3-0.5,2.7-0.5,4s0.2,2.7,0.5,4c0.3,1.3,0.9,2.5,1.6,3.7L85.7,101.8z"/>
			<path fill="#1073BA" d="M90.7,94.1c-0.8,0-1.5-0.3-2-1c-0.5-0.6-0.7-1.6-0.7-2.8c0-1.2,0.2-2.1,0.7-2.7c0.5-0.6,1.1-1,2-1
				c0.8,0,1.5,0.3,1.9,1c0.5,0.6,0.7,1.6,0.7,2.7c0,1.2-0.2,2.1-0.7,2.8C92.1,93.7,91.5,94.1,90.7,94.1z M90.7,93.2
				c0.5,0,0.8-0.2,1.1-0.7c0.3-0.5,0.4-1.2,0.4-2.1c0-0.9-0.1-1.6-0.4-2.1s-0.7-0.7-1.1-0.7c-0.5,0-0.8,0.2-1.1,0.7
				s-0.4,1.2-0.4,2.1c0,0.9,0.1,1.6,0.4,2.1C89.8,92.9,90.2,93.2,90.7,93.2z M91,98.9l6.5-12.2h1L92,98.9H91z M98.9,98.9
				c-0.8,0-1.5-0.3-2-1c-0.5-0.6-0.7-1.6-0.7-2.8c0-1.2,0.2-2.1,0.7-2.7c0.5-0.6,1.1-1,2-1c0.8,0,1.5,0.3,1.9,1
				c0.5,0.6,0.7,1.6,0.7,2.7c0,1.2-0.2,2.1-0.7,2.8C100.3,98.5,99.7,98.9,98.9,98.9z M98.9,97.9c0.5,0,0.8-0.2,1.1-0.7
				c0.3-0.5,0.4-1.2,0.4-2.1c0-0.9-0.1-1.6-0.4-2.1c-0.3-0.5-0.7-0.7-1.1-0.7c-0.5,0-0.8,0.2-1.1,0.7c-0.3,0.5-0.4,1.2-0.4,2.1
				c0,0.9,0.1,1.6,0.4,2.1C98,97.7,98.4,97.9,98.9,97.9z"/>
			<path fill="#1073BA" d="M107.3,102.3V89.9h1.2l0.1,1h0.1c0.4-0.3,0.8-0.6,1.3-0.9c0.5-0.2,1-0.4,1.5-0.4c0.6,0,1.1,0.1,1.5,0.3
				c0.4,0.2,0.8,0.5,1.1,0.9s0.5,0.9,0.7,1.4c0.2,0.5,0.2,1.2,0.2,1.8c0,0.7-0.1,1.4-0.3,2s-0.5,1.1-0.8,1.5
				c-0.3,0.4-0.8,0.7-1.2,0.9c-0.5,0.2-0.9,0.3-1.4,0.3c-0.4,0-0.8-0.1-1.2-0.3c-0.4-0.2-0.8-0.4-1.2-0.7l0,1.5v3H107.3z
				 M110.9,97.6c0.4,0,0.7-0.1,1-0.2c0.3-0.2,0.6-0.4,0.8-0.7c0.2-0.3,0.4-0.7,0.5-1.1c0.1-0.4,0.2-0.9,0.2-1.5c0-0.5,0-0.9-0.1-1.3
				c-0.1-0.4-0.2-0.7-0.4-1c-0.2-0.3-0.4-0.5-0.7-0.7c-0.3-0.2-0.6-0.2-1.1-0.2c-0.4,0-0.7,0.1-1.1,0.3s-0.8,0.5-1.2,0.9v4.6
				c0.4,0.3,0.8,0.6,1.2,0.7C110.3,97.5,110.6,97.6,110.9,97.6z"/>
			<path fill="#1073BA" d="M120.8,98.9c-0.6,0-1.1-0.1-1.6-0.3c-0.5-0.2-1-0.5-1.3-0.9s-0.7-0.9-0.9-1.4c-0.2-0.6-0.3-1.2-0.3-1.9
				c0-0.7,0.1-1.4,0.3-1.9c0.2-0.6,0.5-1.1,0.9-1.4c0.4-0.4,0.8-0.7,1.3-0.9c0.5-0.2,1-0.3,1.5-0.3c0.6,0,1,0.1,1.5,0.3
				c0.4,0.2,0.8,0.5,1.1,0.8c0.3,0.4,0.5,0.8,0.7,1.3c0.2,0.5,0.2,1.1,0.2,1.7c0,0.2,0,0.3,0,0.5c0,0.2,0,0.3,0,0.4h-5.9
				c0.1,0.9,0.4,1.7,0.9,2.2c0.5,0.5,1.2,0.8,2,0.8c0.4,0,0.8-0.1,1.2-0.2c0.4-0.1,0.7-0.3,1-0.5l0.5,1c-0.4,0.2-0.8,0.4-1.3,0.6
				C121.9,98.8,121.4,98.9,120.8,98.9z M118,93.6h4.7c0-0.9-0.2-1.6-0.6-2s-0.9-0.7-1.6-0.7c-0.3,0-0.6,0.1-0.9,0.2
				c-0.3,0.1-0.5,0.3-0.8,0.5c-0.2,0.2-0.4,0.5-0.6,0.9C118.2,92.8,118.1,93.1,118,93.6z"/>
			<path fill="#1073BA" d="M126.2,98.6v-8.7h1.2l0.1,1.6h0.1c0.3-0.6,0.7-1,1.1-1.3c0.4-0.3,0.9-0.5,1.4-0.5c0.3,0,0.7,0.1,0.9,0.2
				l-0.3,1.3c-0.1,0-0.3-0.1-0.4-0.1c-0.1,0-0.3,0-0.5,0c-0.4,0-0.8,0.2-1.2,0.5c-0.4,0.3-0.8,0.8-1.1,1.6v5.6H126.2z"/>
			<path fill="#1073BA" d="M135.7,98.9c-0.6,0-1.1-0.1-1.6-0.3s-0.9-0.5-1.3-0.9c-0.4-0.4-0.7-0.9-0.9-1.4s-0.3-1.2-0.3-1.9
				c0-0.7,0.1-1.4,0.3-2c0.2-0.6,0.5-1.1,0.9-1.4c0.4-0.4,0.8-0.7,1.3-0.9s1-0.3,1.6-0.3c0.6,0,1.1,0.1,1.5,0.3s0.8,0.4,1.1,0.7
				l-0.8,1c-0.3-0.2-0.5-0.4-0.8-0.6c-0.3-0.1-0.6-0.2-0.9-0.2c-0.4,0-0.8,0.1-1.1,0.2c-0.3,0.2-0.6,0.4-0.9,0.7s-0.4,0.7-0.6,1.1
				s-0.2,0.9-0.2,1.4c0,0.5,0.1,1,0.2,1.4c0.1,0.4,0.3,0.8,0.5,1.1c0.2,0.3,0.5,0.5,0.9,0.7s0.7,0.2,1.1,0.2c0.4,0,0.8-0.1,1.1-0.3
				s0.7-0.4,0.9-0.6l0.6,1c-0.4,0.3-0.8,0.6-1.3,0.8C136.7,98.8,136.2,98.9,135.7,98.9z"/>
			<path fill="#1073BA" d="M143.6,98.9c-0.6,0-1.1-0.1-1.6-0.3c-0.5-0.2-1-0.5-1.3-0.9s-0.7-0.9-0.9-1.4c-0.2-0.6-0.3-1.2-0.3-1.9
				c0-0.7,0.1-1.4,0.3-1.9c0.2-0.6,0.5-1.1,0.9-1.4c0.4-0.4,0.8-0.7,1.3-0.9c0.5-0.2,1-0.3,1.5-0.3c0.6,0,1,0.1,1.5,0.3
				c0.4,0.2,0.8,0.5,1.1,0.8c0.3,0.4,0.5,0.8,0.7,1.3s0.2,1.1,0.2,1.7c0,0.2,0,0.3,0,0.5c0,0.2,0,0.3,0,0.4h-5.9
				c0.1,0.9,0.4,1.7,0.9,2.2c0.5,0.5,1.2,0.8,2,0.8c0.4,0,0.8-0.1,1.2-0.2c0.4-0.1,0.7-0.3,1-0.5l0.5,1c-0.4,0.2-0.8,0.4-1.3,0.6
				C144.8,98.8,144.2,98.9,143.6,98.9z M140.9,93.6h4.7c0-0.9-0.2-1.6-0.6-2s-0.9-0.7-1.6-0.7c-0.3,0-0.6,0.1-0.9,0.2
				c-0.3,0.1-0.5,0.3-0.8,0.5c-0.2,0.2-0.4,0.5-0.6,0.9C141,92.8,140.9,93.1,140.9,93.6z"/>
			<path fill="#1073BA" d="M149,98.6v-8.7h1.2l0.1,1.3h0.1c0.4-0.4,0.9-0.8,1.3-1.1c0.5-0.3,1-0.4,1.6-0.4c0.9,0,1.6,0.3,2,0.9
				c0.4,0.6,0.6,1.4,0.6,2.6v5.5h-1.5v-5.3c0-0.8-0.1-1.4-0.4-1.8s-0.7-0.5-1.3-0.5c-0.5,0-0.9,0.1-1.2,0.3c-0.3,0.2-0.7,0.6-1.2,1
				v6.3H149z"/>
			<path fill="#1073BA" d="M161.6,98.9c-0.5,0-0.9-0.1-1.2-0.2c-0.3-0.1-0.6-0.3-0.8-0.6c-0.2-0.3-0.3-0.6-0.4-0.9
				c-0.1-0.4-0.1-0.8-0.1-1.2v-4.8h-1.3V90l1.4-0.1l0.2-2.4h1.2v2.4h2.4v1.2h-2.4V96c0,0.5,0.1,1,0.3,1.3s0.5,0.4,1.1,0.4
				c0.2,0,0.3,0,0.5-0.1c0.2,0,0.3-0.1,0.5-0.2l0.3,1.1c-0.2,0.1-0.5,0.2-0.8,0.2C162.2,98.8,161.9,98.9,161.6,98.9z"/>
			<path fill="#1073BA" d="M165.1,101.8l-0.9-0.4c0.7-1.2,1.2-2.4,1.6-3.7c0.3-1.3,0.5-2.7,0.5-4s-0.2-2.7-0.5-4
				c-0.3-1.3-0.9-2.5-1.6-3.7l0.9-0.4c0.7,1.2,1.3,2.5,1.7,3.8c0.4,1.3,0.6,2.8,0.6,4.4s-0.2,3-0.6,4.4S165.8,100.6,165.1,101.8z"/>
			<path fill="#1073BA" d="M72.2,126.5c-0.4,0-0.8-0.1-1.1-0.4c-0.3-0.3-0.4-0.7-0.4-1.1c0-0.5,0.1-0.8,0.4-1.1
				c0.3-0.3,0.6-0.4,1.1-0.4s0.8,0.1,1.1,0.4c0.3,0.3,0.4,0.7,0.4,1.1c0,0.5-0.1,0.8-0.4,1.1C73,126.3,72.7,126.5,72.2,126.5z"/>
			<path fill="#1073BA" d="M77.7,126.5c-0.4,0-0.8-0.1-1.1-0.4c-0.3-0.3-0.4-0.7-0.4-1.1c0-0.5,0.1-0.8,0.4-1.1
				c0.3-0.3,0.6-0.4,1.1-0.4s0.8,0.1,1.1,0.4c0.3,0.3,0.4,0.7,0.4,1.1c0,0.5-0.1,0.8-0.4,1.1C78.5,126.3,78.2,126.5,77.7,126.5z"/>
			<path fill="#1073BA" d="M83.2,126.5c-0.4,0-0.8-0.1-1.1-0.4c-0.3-0.3-0.4-0.7-0.4-1.1c0-0.5,0.1-0.8,0.4-1.1
				c0.3-0.3,0.6-0.4,1.1-0.4s0.8,0.1,1.1,0.4c0.3,0.3,0.4,0.7,0.4,1.1c0,0.5-0.1,0.8-0.4,1.1C84,126.3,83.7,126.5,83.2,126.5z"/>
			<path fill="#1073BA" d="M87.8,126.2v-8h-1.3v-1.7l1.3-0.1v-1c0-0.5,0.1-1,0.2-1.4s0.3-0.8,0.6-1.1s0.6-0.6,1-0.7
				c0.4-0.2,0.9-0.3,1.5-0.3c0.3,0,0.7,0,1,0.1s0.6,0.1,0.8,0.2l-0.4,1.7c-0.4-0.2-0.7-0.2-1.1-0.2c-0.8,0-1.2,0.6-1.2,1.7v1.1h1.9
				v1.8h-1.9v8H87.8z"/>
			<path fill="#1073BA" d="M93.8,126.2v-9.8h1.9l0.2,1.7h0.1c0.3-0.6,0.8-1.1,1.3-1.5s1-0.5,1.5-0.5c0.5,0,0.8,0.1,1.1,0.2l-0.4,2
				c-0.2-0.1-0.3-0.1-0.5-0.1c-0.1,0-0.3,0-0.5,0c-0.4,0-0.8,0.1-1.2,0.4c-0.4,0.3-0.8,0.8-1.1,1.6v6H93.8z"/>
			<path fill="#1073BA" d="M105.1,126.5c-0.6,0-1.2-0.1-1.8-0.3c-0.6-0.2-1.1-0.6-1.5-1c-0.4-0.4-0.8-1-1-1.6
				c-0.3-0.6-0.4-1.4-0.4-2.2c0-0.8,0.1-1.5,0.4-2.2s0.6-1.2,1-1.6c0.4-0.4,0.9-0.8,1.5-1c0.6-0.2,1.1-0.3,1.8-0.3s1.2,0.1,1.8,0.3
				s1.1,0.6,1.5,1c0.4,0.4,0.8,1,1,1.6c0.3,0.6,0.4,1.4,0.4,2.2c0,0.8-0.1,1.5-0.4,2.2c-0.3,0.6-0.6,1.2-1,1.6
				c-0.4,0.4-0.9,0.8-1.5,1S105.7,126.5,105.1,126.5z M105.1,124.6c0.7,0,1.3-0.3,1.7-0.9c0.4-0.6,0.6-1.4,0.6-2.4
				c0-1-0.2-1.8-0.6-2.4c-0.4-0.6-1-0.9-1.7-0.9c-0.7,0-1.3,0.3-1.7,0.9c-0.4,0.6-0.6,1.4-0.6,2.4c0,1,0.2,1.8,0.6,2.4
				C103.8,124.3,104.3,124.6,105.1,124.6z"/>
			<path fill="#1073BA" d="M112,126.2v-9.8h1.9l0.2,1.3h0.1c0.4-0.4,0.9-0.8,1.4-1.1c0.5-0.3,1-0.5,1.6-0.5c0.7,0,1.3,0.2,1.7,0.5
				c0.4,0.3,0.8,0.7,1,1.3c0.5-0.5,1-0.9,1.5-1.3c0.5-0.3,1.1-0.5,1.7-0.5c1,0,1.8,0.3,2.3,1s0.7,1.6,0.7,2.9v6.2h-2.3v-5.9
				c0-0.8-0.1-1.4-0.4-1.7c-0.2-0.3-0.6-0.5-1.1-0.5c-0.6,0-1.3,0.4-2.1,1.2v6.9h-2.3v-5.9c0-0.8-0.1-1.4-0.4-1.7
				c-0.2-0.3-0.6-0.5-1.2-0.5c-0.6,0-1.3,0.4-2.1,1.2v6.9H112z"/>
			<path fill="#1073BA" d="M136.3,126.5c-0.6,0-1.1-0.1-1.4-0.3c-0.4-0.2-0.7-0.4-1-0.7c-0.2-0.3-0.4-0.7-0.5-1.1
				c-0.1-0.4-0.2-0.9-0.2-1.5v-4.7h-1.4v-1.7l1.5-0.1l0.3-2.7h1.9v2.7h2.5v1.8h-2.5v4.7c0,1.1,0.5,1.7,1.4,1.7c0.2,0,0.4,0,0.5-0.1
				s0.3-0.1,0.5-0.2l0.4,1.7c-0.3,0.1-0.6,0.2-0.9,0.2C137.1,126.4,136.7,126.5,136.3,126.5z"/>
			<path fill="#1073BA" d="M140.1,126.2v-14.1h2.3v3.6l-0.1,1.9c0.4-0.4,0.9-0.7,1.4-1c0.5-0.3,1.1-0.4,1.8-0.4c1.1,0,1.8,0.3,2.3,1
				c0.5,0.7,0.7,1.6,0.7,2.9v6.2h-2.3v-5.9c0-0.8-0.1-1.4-0.4-1.7c-0.2-0.3-0.6-0.5-1.2-0.5c-0.4,0-0.8,0.1-1.1,0.3
				c-0.3,0.2-0.7,0.5-1.1,0.9v6.9H140.1z"/>
			<path fill="#1073BA" d="M151.3,126.2v-9.8h1.9l0.2,1.7h0.1c0.3-0.6,0.8-1.1,1.3-1.5s1-0.5,1.5-0.5c0.5,0,0.8,0.1,1.1,0.2l-0.4,2
				c-0.2-0.1-0.3-0.1-0.5-0.1c-0.1,0-0.3,0-0.5,0c-0.4,0-0.8,0.1-1.2,0.4c-0.4,0.3-0.8,0.8-1.1,1.6v6H151.3z"/>
			<path fill="#1073BA" d="M162.7,126.5c-0.7,0-1.3-0.1-1.9-0.4c-0.6-0.2-1.1-0.6-1.5-1c-0.4-0.4-0.8-1-1-1.6
				c-0.2-0.6-0.4-1.4-0.4-2.2c0-0.8,0.1-1.5,0.4-2.2c0.3-0.6,0.6-1.2,1-1.6c0.4-0.4,0.9-0.8,1.5-1s1.1-0.4,1.7-0.4
				c0.7,0,1.3,0.1,1.8,0.3c0.5,0.2,0.9,0.5,1.3,1s0.6,0.9,0.8,1.5c0.2,0.6,0.3,1.2,0.3,1.9c0,0.2,0,0.4,0,0.6c0,0.2,0,0.4-0.1,0.5
				h-6.2c0.1,0.9,0.4,1.6,0.9,2c0.5,0.5,1.2,0.7,2,0.7c0.4,0,0.8-0.1,1.2-0.2c0.4-0.1,0.7-0.3,1.1-0.5l0.8,1.4
				c-0.5,0.3-1,0.6-1.6,0.8C163.9,126.4,163.3,126.5,162.7,126.5z M160.1,120.4h4.4c0-0.8-0.2-1.4-0.5-1.8c-0.3-0.4-0.8-0.7-1.5-0.7
				c-0.6,0-1.1,0.2-1.5,0.6C160.5,119,160.2,119.6,160.1,120.4z"/>
			<path fill="#1073BA" d="M172.9,126.5c-0.7,0-1.3-0.1-1.9-0.4c-0.6-0.2-1.1-0.6-1.5-1c-0.4-0.4-0.8-1-1-1.6
				c-0.2-0.6-0.4-1.4-0.4-2.2c0-0.8,0.1-1.5,0.4-2.2c0.3-0.6,0.6-1.2,1-1.6c0.4-0.4,0.9-0.8,1.5-1s1.1-0.4,1.7-0.4
				c0.7,0,1.3,0.1,1.8,0.3c0.5,0.2,0.9,0.5,1.3,1s0.6,0.9,0.8,1.5c0.2,0.6,0.3,1.2,0.3,1.9c0,0.2,0,0.4,0,0.6c0,0.2,0,0.4-0.1,0.5
				h-6.2c0.1,0.9,0.4,1.6,0.9,2c0.5,0.5,1.2,0.7,2,0.7c0.4,0,0.8-0.1,1.2-0.2c0.4-0.1,0.7-0.3,1.1-0.5l0.8,1.4
				c-0.5,0.3-1,0.6-1.6,0.8C174.1,126.4,173.5,126.5,172.9,126.5z M170.2,120.4h4.4c0-0.8-0.2-1.4-0.5-1.8c-0.3-0.4-0.8-0.7-1.5-0.7
				c-0.6,0-1.1,0.2-1.5,0.6C170.6,119,170.3,119.6,170.2,120.4z"/>
			<path fill="#1073BA" d="M57.7,149.7V136h1.9l0.2,1h0.1c0.4-0.3,0.9-0.6,1.4-0.9c0.5-0.3,1-0.4,1.6-0.4c0.6,0,1.2,0.1,1.6,0.3
				c0.5,0.2,0.9,0.6,1.2,1c0.3,0.4,0.6,1,0.8,1.6c0.2,0.6,0.3,1.3,0.3,2.1c0,0.8-0.1,1.6-0.3,2.2c-0.2,0.7-0.5,1.2-0.9,1.7
				c-0.4,0.4-0.8,0.8-1.3,1s-1,0.4-1.6,0.4c-0.4,0-0.9-0.1-1.3-0.3s-0.8-0.5-1.2-0.8l0.1,1.6v3.1H57.7z M62,144.2
				c0.7,0,1.2-0.3,1.6-0.8c0.4-0.6,0.7-1.4,0.7-2.5c0-1-0.2-1.8-0.5-2.3s-0.9-0.8-1.6-0.8c-0.7,0-1.4,0.4-2.2,1.1v4.6
				c0.4,0.3,0.7,0.5,1,0.6C61.4,144.1,61.7,144.2,62,144.2z"/>
			<path fill="#1073BA" d="M69,145.8V136h1.9l0.2,1.7h0.1c0.3-0.6,0.8-1.1,1.3-1.5s1-0.5,1.5-0.5c0.5,0,0.8,0.1,1.1,0.2l-0.4,2
				c-0.2-0.1-0.3-0.1-0.5-0.1c-0.1,0-0.3,0-0.5,0c-0.4,0-0.8,0.1-1.2,0.4c-0.4,0.3-0.8,0.8-1.1,1.6v6H69z"/>
			<path fill="#1073BA" d="M77.6,134.3c-0.4,0-0.8-0.1-1-0.4c-0.3-0.2-0.4-0.6-0.4-0.9s0.1-0.7,0.4-1c0.3-0.2,0.6-0.4,1-0.4
				c0.4,0,0.8,0.1,1,0.4c0.3,0.2,0.4,0.6,0.4,1s-0.1,0.7-0.4,0.9C78.3,134.2,78,134.3,77.6,134.3z M76.4,145.8V136h2.3v9.8H76.4z"/>
			<path fill="#1073BA" d="M81.7,145.8V136h1.9l0.2,1.3h0.1c0.4-0.4,0.9-0.8,1.3-1.1c0.5-0.3,1-0.5,1.7-0.5c0.7,0,1.3,0.2,1.7,0.5
				s0.8,0.7,1,1.3c0.5-0.5,1-0.9,1.5-1.3c0.5-0.3,1.1-0.5,1.7-0.5c1,0,1.8,0.3,2.3,1s0.7,1.6,0.7,2.9v6.2h-2.3V140
				c0-0.8-0.1-1.4-0.4-1.7c-0.2-0.3-0.6-0.5-1.1-0.5c-0.6,0-1.3,0.4-2.1,1.2v6.9h-2.3V140c0-0.8-0.1-1.4-0.4-1.7
				c-0.2-0.3-0.6-0.5-1.2-0.5c-0.6,0-1.3,0.4-2.1,1.2v6.9H81.7z"/>
			<path fill="#1073BA" d="M100.9,146.1c-0.9,0-1.6-0.3-2.1-0.8c-0.5-0.5-0.8-1.2-0.8-2.1c0-0.5,0.1-1,0.3-1.4c0.2-0.4,0.6-0.8,1-1
				c0.5-0.3,1.1-0.5,1.8-0.7c0.7-0.2,1.6-0.4,2.6-0.5c0-0.3,0-0.5-0.1-0.7c-0.1-0.2-0.2-0.4-0.3-0.6c-0.1-0.2-0.3-0.3-0.5-0.4
				c-0.2-0.1-0.5-0.2-0.8-0.2c-0.5,0-1,0.1-1.4,0.3s-0.9,0.4-1.3,0.7l-0.8-1.5c0.5-0.3,1.2-0.6,1.8-0.9c0.7-0.3,1.4-0.4,2.2-0.4
				c1.2,0,2.1,0.4,2.8,1.1c0.6,0.7,0.9,1.8,0.9,3.1v5.8h-1.9l-0.2-1.1H104c-0.4,0.4-0.9,0.7-1.4,0.9
				C102,146,101.5,146.1,100.9,146.1z M101.7,144.3c0.4,0,0.8-0.1,1.1-0.3c0.3-0.2,0.7-0.5,1-0.8V141c-0.7,0.1-1.2,0.2-1.7,0.3
				c-0.5,0.1-0.8,0.3-1.1,0.4c-0.3,0.2-0.5,0.4-0.6,0.6c-0.1,0.2-0.2,0.4-0.2,0.7c0,0.4,0.1,0.8,0.4,1
				C100.9,144.2,101.2,144.3,101.7,144.3z"/>
			<path fill="#1073BA" d="M108.9,145.8V136h1.9l0.2,1.7h0.1c0.3-0.6,0.8-1.1,1.3-1.5s1-0.5,1.5-0.5c0.5,0,0.8,0.1,1.1,0.2l-0.4,2
				c-0.2-0.1-0.3-0.1-0.5-0.1c-0.1,0-0.3,0-0.5,0c-0.4,0-0.8,0.1-1.2,0.4c-0.4,0.3-0.8,0.8-1.1,1.6v6H108.9z"/>
			<path fill="#1073BA" d="M117.3,149.9c-0.3,0-0.5,0-0.7,0c-0.2,0-0.4-0.1-0.6-0.2l0.4-1.8c0.1,0,0.2,0.1,0.3,0.1s0.2,0,0.4,0
				c0.5,0,0.9-0.2,1.2-0.5s0.5-0.7,0.7-1.2l0.2-0.6l-3.9-9.7h2.3l1.7,4.8c0.1,0.4,0.3,0.9,0.4,1.3c0.1,0.5,0.3,0.9,0.4,1.4h0.1
				c0.1-0.5,0.2-0.9,0.4-1.4s0.2-0.9,0.4-1.4l1.5-4.8h2.2l-3.6,10.3c-0.2,0.6-0.4,1.1-0.7,1.5c-0.2,0.4-0.5,0.8-0.8,1.1
				c-0.3,0.3-0.7,0.6-1.1,0.7C118.3,149.8,117.8,149.9,117.3,149.9z"/>
			<path fill="#1073BA" d="M133.3,146.1c-0.7,0-1.4-0.1-2-0.4c-0.7-0.3-1.2-0.6-1.7-1l1.1-1.5c0.4,0.3,0.9,0.6,1.3,0.8
				c0.4,0.2,0.9,0.3,1.4,0.3c0.5,0,0.9-0.1,1.2-0.3c0.3-0.2,0.4-0.5,0.4-0.8c0-0.2-0.1-0.4-0.2-0.5c-0.1-0.2-0.3-0.3-0.5-0.4
				s-0.4-0.2-0.7-0.3c-0.3-0.1-0.5-0.2-0.8-0.3c-0.3-0.1-0.6-0.3-1-0.4s-0.6-0.4-0.9-0.6c-0.3-0.2-0.5-0.5-0.6-0.8s-0.2-0.7-0.2-1.1
				c0-0.9,0.3-1.6,1-2.1c0.6-0.5,1.5-0.8,2.6-0.8c0.7,0,1.3,0.1,1.8,0.4s1,0.5,1.4,0.8l-1.1,1.4c-0.3-0.3-0.7-0.5-1-0.6
				c-0.4-0.2-0.7-0.2-1.1-0.2c-0.5,0-0.9,0.1-1.1,0.3s-0.3,0.5-0.3,0.8c0,0.2,0.1,0.4,0.2,0.5c0.1,0.1,0.3,0.3,0.4,0.4
				c0.2,0.1,0.4,0.2,0.7,0.3c0.2,0.1,0.5,0.2,0.8,0.3c0.3,0.1,0.7,0.3,1,0.4c0.3,0.2,0.6,0.3,0.9,0.6s0.5,0.5,0.7,0.8
				c0.2,0.3,0.2,0.7,0.2,1.2c0,0.4-0.1,0.8-0.2,1.2c-0.2,0.4-0.4,0.7-0.7,1c-0.3,0.3-0.7,0.5-1.2,0.7
				C134.4,146,133.9,146.1,133.3,146.1z"/>
			<path fill="#1073BA" d="M143.2,146.1c-0.6,0-1.2-0.1-1.8-0.3s-1.1-0.6-1.5-1c-0.4-0.4-0.8-1-1-1.6c-0.3-0.6-0.4-1.4-0.4-2.2
				c0-0.8,0.1-1.5,0.4-2.2c0.3-0.6,0.6-1.2,1-1.6c0.4-0.4,0.9-0.8,1.5-1s1.1-0.3,1.8-0.3s1.2,0.1,1.8,0.3c0.6,0.2,1.1,0.6,1.5,1
				c0.4,0.4,0.8,1,1,1.6s0.4,1.4,0.4,2.2c0,0.8-0.1,1.5-0.4,2.2c-0.3,0.6-0.6,1.2-1,1.6c-0.4,0.4-0.9,0.8-1.5,1
				C144.4,146,143.8,146.1,143.2,146.1z M143.2,144.2c0.7,0,1.3-0.3,1.7-0.9c0.4-0.6,0.6-1.4,0.6-2.4c0-1-0.2-1.8-0.6-2.4
				c-0.4-0.6-1-0.9-1.7-0.9c-0.7,0-1.3,0.3-1.7,0.9c-0.4,0.6-0.6,1.4-0.6,2.4c0,1,0.2,1.8,0.6,2.4
				C141.9,143.9,142.5,144.2,143.2,144.2z"/>
			<path fill="#1073BA" d="M153.1,146.1c-1.1,0-1.8-0.3-2.3-1c-0.5-0.7-0.7-1.6-0.7-2.9V136h2.3v5.9c0,0.8,0.1,1.4,0.4,1.7
				c0.2,0.3,0.6,0.5,1.2,0.5c0.4,0,0.8-0.1,1.1-0.3c0.3-0.2,0.7-0.6,1-1V136h2.3v9.8h-1.9l-0.2-1.4h-0.1c-0.4,0.5-0.9,0.9-1.4,1.2
				S153.7,146.1,153.1,146.1z"/>
			<path fill="#1073BA" d="M161.3,145.8V136h1.9l0.2,1.7h0.1c0.3-0.6,0.8-1.1,1.3-1.5s1-0.5,1.5-0.5c0.5,0,0.8,0.1,1.1,0.2l-0.4,2
				c-0.2-0.1-0.3-0.1-0.5-0.1c-0.1,0-0.3,0-0.5,0c-0.4,0-0.8,0.1-1.2,0.4c-0.4,0.3-0.8,0.8-1.1,1.6v6H161.3z"/>
			<path fill="#1073BA" d="M172.6,146.1c-0.7,0-1.3-0.1-1.9-0.3s-1.1-0.6-1.5-1c-0.4-0.4-0.8-1-1-1.6c-0.2-0.6-0.4-1.4-0.4-2.2
				c0-0.8,0.1-1.5,0.4-2.2c0.3-0.6,0.6-1.2,1.1-1.6c0.5-0.4,1-0.8,1.6-1c0.6-0.2,1.2-0.3,1.9-0.3c0.6,0,1.2,0.1,1.7,0.3
				c0.5,0.2,0.9,0.5,1.2,0.8l-1.1,1.5c-0.3-0.2-0.5-0.4-0.8-0.5c-0.3-0.1-0.5-0.2-0.8-0.2c-0.8,0-1.4,0.3-1.9,0.9
				c-0.5,0.6-0.7,1.4-0.7,2.4c0,1,0.2,1.8,0.7,2.4c0.5,0.6,1.1,0.9,1.9,0.9c0.4,0,0.8-0.1,1.1-0.2c0.3-0.2,0.6-0.4,0.9-0.6l0.9,1.5
				c-0.5,0.4-1,0.7-1.5,0.9C173.7,146,173.2,146.1,172.6,146.1z"/>
			<path fill="#1073BA" d="M181.5,146.1c-0.7,0-1.3-0.1-1.9-0.4c-0.6-0.2-1.1-0.6-1.5-1c-0.4-0.4-0.8-1-1-1.6
				c-0.2-0.6-0.4-1.4-0.4-2.2c0-0.8,0.1-1.5,0.4-2.2c0.3-0.6,0.6-1.2,1-1.6c0.4-0.4,0.9-0.8,1.5-1s1.1-0.4,1.7-0.4
				c0.7,0,1.3,0.1,1.8,0.3c0.5,0.2,0.9,0.5,1.3,1s0.6,0.9,0.8,1.5c0.2,0.6,0.3,1.2,0.3,1.9c0,0.2,0,0.4,0,0.6c0,0.2,0,0.4-0.1,0.5
				h-6.2c0.1,0.9,0.4,1.6,0.9,2c0.5,0.5,1.2,0.7,2,0.7c0.4,0,0.8-0.1,1.2-0.2c0.4-0.1,0.7-0.3,1.1-0.5l0.8,1.4
				c-0.5,0.3-1,0.6-1.6,0.8C182.7,146,182.1,146.1,181.5,146.1z M178.9,140h4.4c0-0.8-0.2-1.4-0.5-1.8c-0.3-0.4-0.8-0.7-1.5-0.7
				c-0.6,0-1.1,0.2-1.5,0.6C179.2,138.6,179,139.2,178.9,140z"/>
			<path fill="#1073BA" d="M190.2,146.1c-0.7,0-1.4-0.1-2-0.4c-0.7-0.3-1.2-0.6-1.7-1l1.1-1.5c0.4,0.3,0.9,0.6,1.3,0.8
				c0.4,0.2,0.9,0.3,1.4,0.3c0.5,0,0.9-0.1,1.2-0.3c0.3-0.2,0.4-0.5,0.4-0.8c0-0.2-0.1-0.4-0.2-0.5c-0.1-0.2-0.3-0.3-0.5-0.4
				s-0.4-0.2-0.7-0.3c-0.3-0.1-0.5-0.2-0.8-0.3c-0.3-0.1-0.6-0.3-1-0.4s-0.6-0.4-0.9-0.6c-0.3-0.2-0.5-0.5-0.6-0.8s-0.2-0.7-0.2-1.1
				c0-0.9,0.3-1.6,1-2.1c0.6-0.5,1.5-0.8,2.6-0.8c0.7,0,1.3,0.1,1.8,0.4s1,0.5,1.4,0.8l-1.1,1.4c-0.3-0.3-0.7-0.5-1-0.6
				c-0.4-0.2-0.7-0.2-1.1-0.2c-0.5,0-0.9,0.1-1.1,0.3s-0.3,0.5-0.3,0.8c0,0.2,0.1,0.4,0.2,0.5c0.1,0.1,0.3,0.3,0.4,0.4
				c0.2,0.1,0.4,0.2,0.7,0.3c0.2,0.1,0.5,0.2,0.8,0.3c0.3,0.1,0.7,0.3,1,0.4c0.3,0.2,0.6,0.3,0.9,0.6s0.5,0.5,0.7,0.8
				c0.2,0.3,0.2,0.7,0.2,1.2c0,0.4-0.1,0.8-0.2,1.2c-0.2,0.4-0.4,0.7-0.7,1c-0.3,0.3-0.7,0.5-1.2,0.7
				C191.3,146,190.8,146.1,190.2,146.1z"/>
		</g>
	</g>
</g>
<g id="specs">
</g>
</svg>
