<?xml version="1.0" encoding="utf-8"?>
<!-- Generator: Adobe Illustrator 25.2.0, SVG Export Plug-In . SVG Version: 6.00 Build 0)  -->
<svg version="1.1" xmlns="http://www.w3.org/2000/svg" xmlns:xlink="http://www.w3.org/1999/xlink" x="0px" y="0px"
	 viewBox="0 0 156 132" enable-background="new 0 0 156 132" xml:space="preserve">
<g id="background">
</g>
<g id="Layer_1">
	<g>
		<g>
			<circle fill="#E9E9EA" cx="78.8" cy="71.6" r="59.9"/>
		</g>
		<g>
			<g>
				
					<rect x="1.5" y="37" transform="matrix(0.6333 -0.7739 0.7739 0.6333 -25.7731 63.9272)" fill="#FFFFFF" width="106.2" height="44.3"/>
				<path fill="#2A5183" d="M38.4,117.9L0.2,86.6L70.7,0.5l38.2,31.3L38.4,117.9z M7.4,85.9l30.3,24.8l64-78.2L71.4,7.6L7.4,85.9z"
					/>
			</g>
			<g>
				<circle fill="#FFFFFF" cx="54.6" cy="59.2" r="13.5"/>
				<path fill="#BEF381" d="M54.6,75.2c-3.7,0-7.2-1.3-10.1-3.6c-6.8-5.6-7.8-15.7-2.3-22.5c5.6-6.8,15.7-7.8,22.5-2.3
					c6.8,5.6,7.8,15.7,2.3,22.5c-2.7,3.3-6.5,5.4-10.8,5.8C55.7,75.2,55.1,75.2,54.6,75.2z M54.6,48.3c-3.2,0-6.3,1.4-8.5,4
					c-3.8,4.7-3.1,11.5,1.5,15.4l0,0c2.3,1.8,5.1,2.7,8,2.4c2.9-0.3,5.5-1.7,7.4-3.9c1.8-2.3,2.7-5.1,2.4-8
					c-0.3-2.9-1.7-5.5-3.9-7.4C59.5,49.1,57.1,48.3,54.6,48.3z"/>
			</g>
			<g>
				<circle fill="#BEF381" cx="17.8" cy="84.5" r="5.4"/>
			</g>
			<g>
				<circle fill="#BEF381" cx="71.1" cy="19.4" r="5.4"/>
			</g>
			<g>
				<circle fill="#BEF381" cx="37.9" cy="101" r="4"/>
			</g>
			<g>
				<circle fill="#BEF381" cx="91.2" cy="35.8" r="4"/>
			</g>
		</g>
		<g>
			<g>
				
					<rect x="19.7" y="46.3" transform="matrix(0.8474 -0.531 0.531 0.8474 -25.2223 49.1019)" fill="#FFFFFF" width="106.2" height="44.3"/>
				<path fill="#2A5183" d="M38.8,118.9L12.6,77L106.8,18l26.2,41.9L38.8,118.9z M19.6,78.7l20.8,33.2L126,58.2L105.2,25L19.6,78.7z
					"/>
			</g>
			<g>
				<circle fill="#FFFFFF" cx="72.8" cy="68.5" r="13.5"/>
				<path fill="#BEF381" d="M72.9,84.5c-5.3,0-10.6-2.7-13.6-7.5l0,0c-4.7-7.5-2.4-17.4,5.1-22.1c7.5-4.7,17.4-2.4,22.1,5.1
					c2.3,3.6,3,7.9,2,12.1c-1,4.2-3.5,7.7-7.1,10C78.7,83.7,75.8,84.5,72.9,84.5z M63.6,74.3c3.2,5.1,9.9,6.7,15,3.5
					c2.5-1.5,4.2-4,4.8-6.8s0.2-5.8-1.4-8.2c-3.2-5.1-9.9-6.6-15-3.5C62,62.4,60.4,69.2,63.6,74.3L63.6,74.3z"/>
			</g>
			<g>
				<circle fill="#BEF381" cx="29.9" cy="80.7" r="5.4"/>
			</g>
			<g>
				<circle fill="#BEF381" cx="101.2" cy="36" r="5.4"/>
			</g>
			<g>
				<circle fill="#BEF381" cx="43.6" cy="102.7" r="4"/>
			</g>
			<g>
				<circle fill="#BEF381" cx="115" cy="58" r="4"/>
			</g>
		</g>
		<g>
			<g>
				
					<rect x="42.1" y="66.3" transform="matrix(0.9513 -0.3082 0.3082 0.9513 -22.6136 33.6506)" fill="#FFFFFF" width="106.2" height="44.3"/>
				<path fill="#2A5183" d="M49.9,129.1l-15.2-47l105.9-34.3l15.2,47L49.9,129.1z M41.1,85.4l12.1,37.3l96.2-31.1l-12.1-37.3
					L41.1,85.4z"/>
			</g>
			<g>
				<circle fill="#FFFFFF" cx="95.3" cy="88.5" r="13.5"/>
				<path fill="#BEF381" d="M95.3,104.5c-6.8,0-13.1-4.3-15.2-11.1v0C77.3,85,81.9,76,90.3,73.3c8.4-2.7,17.5,1.9,20.2,10.3
					c2.7,8.4-1.9,17.5-10.3,20.2C98.6,104.3,96.9,104.5,95.3,104.5z M84.9,91.9c1.9,5.7,8,8.9,13.8,7c5.7-1.9,8.9-8,7-13.8
					c-0.9-2.8-2.8-5-5.4-6.4c-2.6-1.3-5.6-1.6-8.3-0.7C86.2,80,83,86.1,84.9,91.9L84.9,91.9z"/>
			</g>
			<g>
				<circle fill="#BEF381" cx="50.6" cy="89.9" r="5.4"/>
			</g>
			<g>
				<circle fill="#BEF381" cx="130.7" cy="63.9" r="5.4"/>
			</g>
			<g>
				<circle fill="#BEF381" cx="58.6" cy="114.5" r="4"/>
			</g>
			<g>
				<circle fill="#BEF381" cx="138.7" cy="88.6" r="4"/>
			</g>
		</g>
	</g>
</g>
<g id="contact">
</g>
</svg>
