<?xml version="1.0" encoding="utf-8"?>
<!-- Generator: Adobe Illustrator 25.2.0, SVG Export Plug-In . SVG Version: 6.00 Build 0)  -->
<svg version="1.1" xmlns="http://www.w3.org/2000/svg" xmlns:xlink="http://www.w3.org/1999/xlink" x="0px" y="0px"
	 viewBox="0 0 156 132" enable-background="new 0 0 156 132" xml:space="preserve">
<g id="background">
</g>
<g id="Layer_1">
	<g>
		<g>
			<circle fill="#E9E9EA" cx="78" cy="66" r="59.9"/>
		</g>
		<g>
			<path fill="#FFFFFF" d="M129.5,92.8H26.5c-1.7,0-3-1.3-3-3V28c0-1.7,1.3-3,3-3h102.9c1.7,0,3,1.3,3,3v61.8
				C132.5,91.4,131.1,92.8,129.5,92.8z"/>
			<path fill="#2A5183" d="M129.5,95.3H26.5c-3.1,0-5.6-2.5-5.6-5.6V28c0-3.1,2.5-5.6,5.6-5.6h102.9c3.1,0,5.6,2.5,5.6,5.6v61.8
				C135,92.8,132.5,95.3,129.5,95.3z M26.5,27.5c-0.3,0-0.5,0.2-0.5,0.5v61.8c0,0.3,0.2,0.5,0.5,0.5h102.9c0.3,0,0.5-0.2,0.5-0.5V28
				c0-0.3-0.2-0.5-0.5-0.5H26.5z"/>
		</g>
		<g>
			<path fill="#A8D1EF" d="M132.5,78.7H23.5v11c0,1.7,1.3,3,3,3h102.9c1.7,0,3-1.3,3-3V78.7z"/>
			<path fill="#2A5183" d="M129.5,95.3H26.5c-3.1,0-5.5-2.5-5.5-5.5V76.2h114v13.6C135,92.8,132.5,95.3,129.5,95.3z M26.1,81.3v8.5
				c0,0.2,0.2,0.5,0.5,0.5h102.9c0.2,0,0.5-0.2,0.5-0.5v-8.5H26.1z"/>
		</g>
		<g>
			<rect x="65" y="92.8" fill="#2A5183" width="5.1" height="13.2"/>
		</g>
		<g>
			<rect x="85.9" y="92.8" fill="#2A5183" width="5.1" height="13.2"/>
		</g>
		<g>
			<rect x="50.7" y="103.4" fill="#2A5183" width="54.6" height="5.1"/>
		</g>
		<g>
			<rect x="49.6" y="33.1" fill="#2A5183" width="21" height="5.1"/>
		</g>
		<g>
			<rect x="74.6" y="33.1" fill="#2A5183" width="21" height="5.1"/>
		</g>
		<g>
			<rect x="99" y="33.1" fill="#2A5183" width="26.8" height="5.1"/>
		</g>
		<g>
			<rect x="37.7" y="31.4" fill="#A8D1EF" width="10.8" height="42.7"/>
		</g>
		<g>
			<rect x="39.9" y="33.4" fill="#2A5183" width="5.6" height="5.1"/>
		</g>
		<g>
			<rect x="31.1" y="33.4" fill="#2A5183" width="5.6" height="5.1"/>
		</g>
		<g>
			<rect x="49.6" y="41.7" fill="#2A5183" width="21" height="5.1"/>
		</g>
		<g>
			<rect x="74.6" y="41.7" fill="#2A5183" width="21" height="5.1"/>
		</g>
		<g>
			<rect x="99" y="41.7" fill="#2A5183" width="26.8" height="5.1"/>
		</g>
		<g>
			<rect x="39.9" y="42" fill="#2A5183" width="5.6" height="5.1"/>
		</g>
		<g>
			<rect x="31.1" y="42" fill="#2A5183" width="5.6" height="5.1"/>
		</g>
		<g>
			<rect x="49.6" y="50.3" fill="#2A5183" width="21" height="5.1"/>
		</g>
		<g>
			<rect x="74.6" y="50.3" fill="#2A5183" width="21" height="5.1"/>
		</g>
		<g>
			<rect x="99" y="50.3" fill="#2A5183" width="26.8" height="5.1"/>
		</g>
		<g>
			<rect x="39.9" y="50.6" fill="#2A5183" width="5.6" height="5.1"/>
		</g>
		<g>
			<rect x="31.1" y="50.6" fill="#2A5183" width="5.6" height="5.1"/>
		</g>
		<g>
			<rect x="49.6" y="58.9" fill="#2A5183" width="21" height="5.1"/>
		</g>
		<g>
			<rect x="74.6" y="58.9" fill="#2A5183" width="21" height="5.1"/>
		</g>
		<g>
			<rect x="99" y="58.9" fill="#2A5183" width="26.8" height="5.1"/>
		</g>
		<g>
			<rect x="39.9" y="59.1" fill="#2A5183" width="5.6" height="5.1"/>
		</g>
		<g>
			<rect x="31.1" y="59.1" fill="#2A5183" width="5.6" height="5.1"/>
		</g>
		<g>
			<rect x="49.6" y="67.5" fill="#2A5183" width="21" height="5.1"/>
		</g>
		<g>
			<rect x="74.6" y="67.5" fill="#2A5183" width="21" height="5.1"/>
		</g>
		<g>
			<rect x="99" y="67.5" fill="#2A5183" width="26.8" height="5.1"/>
		</g>
		<g>
			<rect x="39.9" y="67.7" fill="#2A5183" width="5.6" height="5.1"/>
		</g>
		<g>
			<rect x="31.1" y="67.7" fill="#2A5183" width="5.6" height="5.1"/>
		</g>
	</g>
</g>
<g id="contact">
</g>
</svg>
