<?xml version="1.0" encoding="utf-8"?>
<!-- Generator: Adobe Illustrator 25.2.1, SVG Export Plug-In . SVG Version: 6.00 Build 0)  -->
<svg version="1.1" xmlns="http://www.w3.org/2000/svg" xmlns:xlink="http://www.w3.org/1999/xlink" x="0px" y="0px"
	 viewBox="0 0 251.3 250.8" enable-background="new 0 0 251.3 250.8" xml:space="preserve">
<g id="Layer_1">
	<g>
		<g>
			<path fill="#1073BA" d="M251.2,128.1c0-70.7-57.3-127.9-127.9-127.9v43.4c46.9,0,84.9,38,84.9,84.9"/>
			<path fill="#FFFFFF" d="M208.3,128.5h-0.2c0-22.7-8.8-44-24.8-60c-16-16-37.3-24.8-60-24.8h-0.1V0h0.1c17.3,0,34.1,3.4,49.9,10.1
				c15.2,6.5,28.9,15.7,40.7,27.4c11.8,11.8,21,25.5,27.4,40.7c6.7,15.8,10.1,32.6,10.1,49.9h-0.2c0-17.3-3.4-34-10-49.8
				c-6.4-15.2-15.7-28.9-27.4-40.6c-11.7-11.7-25.4-21-40.6-27.4c-15.7-6.6-32.4-10-49.6-10v43.2c22.7,0,44,8.9,60,24.9
				C199.5,84.4,208.3,105.8,208.3,128.5z"/>
		</g>
		<g>
			<path fill="#3FBDEF" d="M124.4,43.6c0.4,0,0.9,0,1.3,0V0.1c-38.7,0-73,16.3-97.4,46.4L60.9,73C76.2,55,99,43.6,124.4,43.6"/>
			<path fill="#FFFFFF" d="M61,73.2L61,73.2L28.1,46.6l0.1-0.1c12.1-15,26.7-26.6,43.3-34.5C88.2,4,106.4,0,125.7,0h0.1v43.7l-0.5,0
				c-0.3,0-0.6,0-0.9,0C100,43.7,76.9,54.4,61,73.2L61,73.2z M28.5,46.5l32.4,26.3c15.9-18.7,39-29.4,63.5-29.4c0.3,0,0.6,0,1,0
				l0.2,0V0.3c-19.2,0-37.3,4-53.9,11.9C55.1,20.1,40.6,31.6,28.5,46.5z"/>
		</g>
		<g>
			<path fill="#9D3EC1" d="M60.9,73L28.3,46.6C16.1,61.6,8.8,76.3,4.1,95.1l40,10C47.3,93.1,53.1,82.2,60.9,73"/>
			<path fill="#FFFFFF" d="M44.2,105.2l-0.1,0L4,95.2l0-0.1c4.7-18.9,12-33.4,24.2-48.6l0.1-0.1l0.1,0.1L61.1,73L61,73.1
				c-7.9,9.3-13.7,20.4-16.8,32L44.2,105.2z M4.3,95l39.7,9.9c3.2-11.6,8.9-22.7,16.8-31.9L28.3,46.7C16.2,61.8,9,76.2,4.3,95z"/>
		</g>
		<g>
			<path fill="#F4A03B" d="M41.2,126.7c0-7.5,1-14.8,2.9-21.7l-40-10c-6,24.2-5.3,45.3,2.4,69L45,151.6
				C42.5,143.8,41.2,135.4,41.2,126.7"/>
			<path fill="#FFFFFF" d="M6.5,164.3l0-0.1c-7.7-23.6-8.4-45-2.4-69.1l0-0.1l0.1,0l40.1,10l0,0.1c-1.9,7-2.9,14.3-2.9,21.6
				c0,8.5,1.3,16.8,3.8,24.8l0,0.1L6.5,164.3z M4.2,95.2c-6,24-5.2,45.2,2.4,68.7l38.2-12.4c-2.5-8-3.8-16.3-3.8-24.8
				c0-7.3,1-14.6,2.8-21.6L4.2,95.2z"/>
		</g>
		<g>
			<path fill="#F65038" d="M45,151.6L6.5,164.1c8.6,26.3,23.1,46.4,45.5,62.6l23.7-32.6C61.3,183.8,50.4,168.9,45,151.6"/>
			<path fill="#FFFFFF" d="M52.1,226.9l-0.1-0.1c-22.5-16.3-37-36.3-45.6-62.7l0-0.1l0.1,0l38.6-12.5l0,0.1
				c5.3,16.9,16.2,32,30.7,42.5l0.1,0.1l-0.1,0.1L52.1,226.9z M6.7,164.2c8.6,26.3,23,46.1,45.3,62.4l23.5-32.4
				c-14.4-10.5-25.3-25.5-30.6-42.4L6.7,164.2z"/>
		</g>
		<g>
			<path fill="#11B7B3" d="M124.4,209.9c-18.2,0-35-5.8-48.7-15.7L52,226.8c24.6,17.9,52,25.7,82.4,23.6l-2.9-40.8
				C129.2,209.8,126.8,209.9,124.4,209.9"/>
			<path fill="#FFFFFF" d="M124.9,250.8c-11.7,0-23.1-1.6-33.9-4.6c-13.7-3.9-26.8-10.4-39.1-19.3l-0.1-0.1l0.1-0.1L75.7,194
				l0.1,0.1c14.2,10.3,31,15.7,48.6,15.7c2.4,0,4.8-0.1,7.2-0.3l0.1,0l0,0.1l2.9,40.9l-0.1,0C131.2,250.7,128.1,250.8,124.9,250.8z
				 M52.2,226.7c12.2,8.9,25.3,15.3,38.9,19.2c13.6,3.9,28.1,5.3,43.2,4.3l-2.8-40.5c-2.4,0.2-4.7,0.3-7.1,0.3
				c-17.6,0-34.4-5.4-48.6-15.7L52.2,226.7z"/>
		</g>
		<g>
			<path fill="#F4EA3B" d="M131.6,209.6l2.9,40.8c35.9-2.5,66-18.2,88.6-46.1l-32.9-26.6C176.3,195.5,155.4,207.6,131.6,209.6"/>
			<path fill="#FFFFFF" d="M134.3,250.5l0-0.1l-2.9-40.9l0.1,0c23-2,44.3-13.6,58.5-31.9l0.1-0.1l0.1,0.1l33,26.7l-0.1,0.1
				c-11.3,13.9-24.5,24.9-39.4,32.6c-14.9,7.7-31.4,12.3-49.3,13.5L134.3,250.5z M131.7,209.7l2.8,40.5c17.8-1.3,34.3-5.8,49.1-13.5
				c14.8-7.7,28-18.6,39.2-32.5l-32.7-26.5C176,196.1,154.7,207.7,131.7,209.7z"/>
		</g>
		<g>
			<path fill="#7AC43D" d="M248.7,101.5l-42.8,8.3c1.1,5.5,1.7,11.1,1.7,16.9c0,19.2-6.5,36.8-17.4,50.9l32.9,26.6
				C247.4,174.1,256,139.5,248.7,101.5"/>
			<path fill="#FFFFFF" d="M223.1,204.4L223.1,204.4L190,177.6l0.1-0.1c11.4-14.7,17.4-32.2,17.4-50.8c0-5.7-0.6-11.4-1.7-16.9
				l0-0.1l0.1,0l43-8.3l0,0.1C256.2,139.6,247.6,174.2,223.1,204.4L223.1,204.4z M190.3,177.6l32.7,26.5
				c24.3-30,32.9-64.5,25.5-102.4l-42.6,8.3c1.1,5.5,1.7,11.2,1.7,16.8C207.7,145.3,201.7,162.9,190.3,177.6z"/>
		</g>
		<g>
			<path fill="#1073BA" d="M86,89.2c-0.7-1.2-1.3-2.5-1.7-3.8s-0.6-2.8-0.6-4.4s0.2-3,0.6-4.4c0.4-1.3,1-2.6,1.7-3.8l0.9,0.4
				c-0.7,1.2-1.2,2.4-1.6,3.7c-0.3,1.3-0.5,2.7-0.5,4s0.2,2.7,0.5,4c0.3,1.3,0.9,2.5,1.6,3.7L86,89.2z"/>
			<path fill="#1073BA" d="M90.9,81.5c-0.8,0-1.5-0.3-2-1c-0.5-0.6-0.7-1.6-0.7-2.8c0-1.2,0.2-2.1,0.7-2.7c0.5-0.6,1.1-1,2-1
				c0.8,0,1.5,0.3,1.9,1c0.5,0.6,0.7,1.6,0.7,2.7c0,1.2-0.2,2.1-0.7,2.8C92.4,81.2,91.7,81.5,90.9,81.5z M90.9,80.6
				c0.5,0,0.8-0.2,1.1-0.7c0.3-0.5,0.4-1.2,0.4-2.1c0-0.9-0.1-1.6-0.4-2.1S91.4,75,90.9,75c-0.5,0-0.8,0.2-1.1,0.7s-0.4,1.2-0.4,2.1
				c0,0.9,0.1,1.6,0.4,2.1C90.1,80.3,90.5,80.6,90.9,80.6z M91.3,86.3L97.8,74h1l-6.5,12.2H91.3z M99.2,86.3c-0.8,0-1.5-0.3-2-1
				c-0.5-0.6-0.7-1.6-0.7-2.8c0-1.2,0.2-2.1,0.7-2.7c0.5-0.6,1.1-1,2-1c0.8,0,1.5,0.3,1.9,1c0.5,0.6,0.7,1.6,0.7,2.7
				c0,1.2-0.2,2.1-0.7,2.8C100.6,86,100,86.3,99.2,86.3z M99.2,85.4c0.5,0,0.8-0.2,1.1-0.7c0.3-0.5,0.4-1.2,0.4-2.1
				c0-0.9-0.1-1.6-0.4-2.1c-0.3-0.5-0.7-0.7-1.1-0.7c-0.5,0-0.8,0.2-1.1,0.7c-0.3,0.5-0.4,1.2-0.4,2.1c0,0.9,0.1,1.6,0.4,2.1
				C98.3,85.1,98.7,85.4,99.2,85.4z"/>
			<path fill="#1073BA" d="M107.5,89.8V77.3h1.2l0.1,1h0.1c0.4-0.3,0.8-0.6,1.3-0.9c0.5-0.2,1-0.4,1.5-0.4c0.6,0,1.1,0.1,1.5,0.3
				c0.4,0.2,0.8,0.5,1.1,0.9c0.3,0.4,0.5,0.9,0.7,1.4s0.2,1.2,0.2,1.8c0,0.7-0.1,1.4-0.3,2s-0.5,1.1-0.8,1.5
				c-0.3,0.4-0.8,0.7-1.2,0.9c-0.5,0.2-0.9,0.3-1.4,0.3c-0.4,0-0.8-0.1-1.2-0.3c-0.4-0.2-0.8-0.4-1.2-0.7l0,1.5v3H107.5z M111.2,85
				c0.4,0,0.7-0.1,1-0.2c0.3-0.2,0.6-0.4,0.8-0.7c0.2-0.3,0.4-0.7,0.5-1.1c0.1-0.4,0.2-0.9,0.2-1.5c0-0.5,0-0.9-0.1-1.3
				c-0.1-0.4-0.2-0.7-0.4-1s-0.4-0.5-0.7-0.7c-0.3-0.2-0.6-0.2-1.1-0.2c-0.4,0-0.7,0.1-1.1,0.3c-0.4,0.2-0.8,0.5-1.2,0.9v4.6
				c0.4,0.3,0.8,0.6,1.2,0.7C110.5,85,110.9,85,111.2,85z"/>
			<path fill="#1073BA" d="M121.1,86.3c-0.6,0-1.1-0.1-1.6-0.3c-0.5-0.2-1-0.5-1.3-0.9s-0.7-0.9-0.9-1.4c-0.2-0.6-0.3-1.2-0.3-1.9
				c0-0.7,0.1-1.4,0.3-1.9c0.2-0.6,0.5-1.1,0.9-1.4c0.4-0.4,0.8-0.7,1.3-0.9c0.5-0.2,1-0.3,1.5-0.3c0.6,0,1,0.1,1.5,0.3
				c0.4,0.2,0.8,0.5,1.1,0.8c0.3,0.4,0.5,0.8,0.7,1.3s0.2,1.1,0.2,1.7c0,0.2,0,0.3,0,0.5c0,0.2,0,0.3,0,0.4h-5.9
				c0.1,0.9,0.4,1.7,0.9,2.2s1.2,0.8,2,0.8c0.4,0,0.8-0.1,1.2-0.2c0.4-0.1,0.7-0.3,1-0.5l0.5,1c-0.4,0.2-0.8,0.4-1.3,0.6
				C122.2,86.2,121.7,86.3,121.1,86.3z M118.3,81h4.7c0-0.9-0.2-1.6-0.6-2s-0.9-0.7-1.6-0.7c-0.3,0-0.6,0.1-0.9,0.2
				c-0.3,0.1-0.5,0.3-0.8,0.5s-0.4,0.5-0.6,0.9C118.5,80.2,118.4,80.6,118.3,81z"/>
			<path fill="#1073BA" d="M126.5,86.1v-8.7h1.2l0.1,1.6h0.1c0.3-0.6,0.7-1,1.1-1.3c0.4-0.3,0.9-0.5,1.4-0.5c0.3,0,0.7,0.1,0.9,0.2
				l-0.3,1.3c-0.1,0-0.3-0.1-0.4-0.1c-0.1,0-0.3,0-0.5,0c-0.4,0-0.8,0.2-1.2,0.5s-0.8,0.8-1.1,1.6v5.6H126.5z"/>
			<path fill="#1073BA" d="M136,86.3c-0.6,0-1.1-0.1-1.6-0.3s-0.9-0.5-1.3-0.9c-0.4-0.4-0.7-0.9-0.9-1.4s-0.3-1.2-0.3-1.9
				c0-0.7,0.1-1.4,0.3-2c0.2-0.6,0.5-1.1,0.9-1.4c0.4-0.4,0.8-0.7,1.3-0.9c0.5-0.2,1-0.3,1.6-0.3c0.6,0,1.1,0.1,1.5,0.3
				s0.8,0.4,1.1,0.7l-0.8,1c-0.3-0.2-0.5-0.4-0.8-0.6c-0.3-0.1-0.6-0.2-0.9-0.2c-0.4,0-0.8,0.1-1.1,0.2c-0.3,0.2-0.6,0.4-0.9,0.7
				s-0.4,0.7-0.6,1.1c-0.1,0.4-0.2,0.9-0.2,1.4c0,0.5,0.1,1,0.2,1.4c0.1,0.4,0.3,0.8,0.5,1.1s0.5,0.5,0.9,0.7s0.7,0.2,1.1,0.2
				c0.4,0,0.8-0.1,1.1-0.3c0.3-0.2,0.7-0.4,0.9-0.6l0.6,1c-0.4,0.3-0.8,0.6-1.3,0.8S136.5,86.3,136,86.3z"/>
			<path fill="#1073BA" d="M143.9,86.3c-0.6,0-1.1-0.1-1.6-0.3c-0.5-0.2-1-0.5-1.3-0.9c-0.4-0.4-0.7-0.9-0.9-1.4
				c-0.2-0.6-0.3-1.2-0.3-1.9c0-0.7,0.1-1.4,0.3-1.9c0.2-0.6,0.5-1.1,0.9-1.4c0.4-0.4,0.8-0.7,1.2-0.9c0.5-0.2,1-0.3,1.5-0.3
				c0.6,0,1,0.1,1.5,0.3c0.4,0.2,0.8,0.5,1.1,0.8c0.3,0.4,0.5,0.8,0.7,1.3s0.2,1.1,0.2,1.7c0,0.2,0,0.3,0,0.5c0,0.2,0,0.3,0,0.4
				h-5.9c0.1,0.9,0.4,1.7,0.9,2.2c0.5,0.5,1.2,0.8,2,0.8c0.4,0,0.8-0.1,1.2-0.2s0.7-0.3,1-0.5l0.5,1c-0.4,0.2-0.8,0.4-1.3,0.6
				C145,86.2,144.5,86.3,143.9,86.3z M141.1,81h4.7c0-0.9-0.2-1.6-0.6-2c-0.4-0.5-0.9-0.7-1.6-0.7c-0.3,0-0.6,0.1-0.9,0.2
				c-0.3,0.1-0.5,0.3-0.8,0.5c-0.2,0.2-0.4,0.5-0.6,0.9S141.2,80.6,141.1,81z"/>
			<path fill="#1073BA" d="M149.3,86.1v-8.7h1.2l0.1,1.3h0.1c0.4-0.4,0.9-0.8,1.3-1.1c0.5-0.3,1-0.4,1.6-0.4c0.9,0,1.6,0.3,2,0.9
				c0.4,0.6,0.6,1.4,0.6,2.6v5.5h-1.5v-5.3c0-0.8-0.1-1.4-0.4-1.8s-0.7-0.5-1.3-0.5c-0.5,0-0.9,0.1-1.2,0.3c-0.3,0.2-0.7,0.6-1.2,1
				v6.3H149.3z"/>
			<path fill="#1073BA" d="M161.9,86.3c-0.5,0-0.9-0.1-1.2-0.2c-0.3-0.1-0.6-0.3-0.8-0.6s-0.3-0.6-0.4-0.9c-0.1-0.4-0.1-0.8-0.1-1.2
				v-4.8h-1.3v-1.1l1.4-0.1l0.2-2.4h1.2v2.4h2.4v1.2h-2.4v4.9c0,0.5,0.1,1,0.3,1.3s0.5,0.4,1.1,0.4c0.2,0,0.3,0,0.5-0.1
				c0.2,0,0.3-0.1,0.5-0.2l0.3,1.1c-0.2,0.1-0.5,0.2-0.8,0.2C162.4,86.2,162.2,86.3,161.9,86.3z"/>
			<path fill="#1073BA" d="M165.3,89.2l-0.9-0.4c0.7-1.2,1.2-2.4,1.6-3.7c0.3-1.3,0.5-2.7,0.5-4s-0.2-2.7-0.5-4
				c-0.3-1.3-0.9-2.5-1.6-3.7l0.9-0.4c0.7,1.2,1.3,2.5,1.7,3.8c0.4,1.3,0.6,2.8,0.6,4.4s-0.2,3-0.6,4.4S166.1,88,165.3,89.2z"/>
			<path fill="#1073BA" d="M81.2,115.9c-0.4,0-0.8-0.1-1.1-0.4s-0.4-0.7-0.4-1.1c0-0.5,0.1-0.8,0.4-1.1c0.3-0.3,0.6-0.4,1.1-0.4
				c0.4,0,0.8,0.1,1.1,0.4c0.3,0.3,0.4,0.7,0.4,1.1c0,0.5-0.1,0.8-0.4,1.1C82,115.8,81.6,115.9,81.2,115.9z"/>
			<path fill="#1073BA" d="M86.7,115.9c-0.4,0-0.8-0.1-1.1-0.4s-0.4-0.7-0.4-1.1c0-0.5,0.1-0.8,0.4-1.1c0.3-0.3,0.6-0.4,1.1-0.4
				c0.4,0,0.8,0.1,1.1,0.4c0.3,0.3,0.4,0.7,0.4,1.1c0,0.5-0.1,0.8-0.4,1.1C87.5,115.8,87.1,115.9,86.7,115.9z"/>
			<path fill="#1073BA" d="M92.2,115.9c-0.4,0-0.8-0.1-1.1-0.4s-0.4-0.7-0.4-1.1c0-0.5,0.1-0.8,0.4-1.1c0.3-0.3,0.6-0.4,1.1-0.4
				c0.4,0,0.8,0.1,1.1,0.4c0.3,0.3,0.4,0.7,0.4,1.1c0,0.5-0.1,0.8-0.4,1.1C93,115.8,92.6,115.9,92.2,115.9z"/>
			<path fill="#1073BA" d="M96.8,115.7v-8h-1.3v-1.7l1.3-0.1v-1c0-0.5,0.1-1,0.2-1.4s0.3-0.8,0.6-1.1s0.6-0.6,1-0.7
				c0.4-0.2,0.9-0.3,1.5-0.3c0.3,0,0.7,0,1,0.1c0.3,0.1,0.6,0.1,0.8,0.2l-0.4,1.7c-0.4-0.2-0.7-0.2-1.1-0.2c-0.8,0-1.2,0.6-1.2,1.7
				v1.1h1.9v1.8h-1.9v8H96.8z"/>
			<path fill="#1073BA" d="M102.7,115.7v-9.8h1.9l0.2,1.7h0.1c0.3-0.6,0.8-1.1,1.3-1.5c0.5-0.3,1-0.5,1.5-0.5c0.5,0,0.8,0.1,1.1,0.2
				l-0.4,2c-0.2-0.1-0.3-0.1-0.5-0.1c-0.1,0-0.3,0-0.5,0c-0.4,0-0.8,0.1-1.2,0.4c-0.4,0.3-0.8,0.8-1.1,1.6v6H102.7z"/>
			<path fill="#1073BA" d="M114,115.9c-0.6,0-1.2-0.1-1.8-0.3c-0.6-0.2-1.1-0.6-1.5-1c-0.4-0.4-0.8-1-1-1.6
				c-0.3-0.6-0.4-1.4-0.4-2.2c0-0.8,0.1-1.5,0.4-2.2s0.6-1.2,1-1.6c0.4-0.4,0.9-0.8,1.5-1c0.6-0.2,1.1-0.3,1.8-0.3s1.2,0.1,1.8,0.3
				s1.1,0.6,1.5,1c0.4,0.4,0.8,1,1,1.6s0.4,1.4,0.4,2.2c0,0.8-0.1,1.5-0.4,2.2c-0.3,0.6-0.6,1.2-1,1.6c-0.4,0.4-0.9,0.8-1.5,1
				S114.6,115.9,114,115.9z M114,114c0.7,0,1.3-0.3,1.7-0.9c0.4-0.6,0.6-1.4,0.6-2.4c0-1-0.2-1.8-0.6-2.4c-0.4-0.6-1-0.9-1.7-0.9
				c-0.7,0-1.3,0.3-1.7,0.9c-0.4,0.6-0.6,1.4-0.6,2.4c0,1,0.2,1.8,0.6,2.4C112.7,113.7,113.3,114,114,114z"/>
			<path fill="#1073BA" d="M121,115.7v-9.8h1.9l0.2,1.3h0.1c0.4-0.4,0.9-0.8,1.3-1.1s1-0.5,1.7-0.5c0.7,0,1.3,0.2,1.7,0.5
				c0.4,0.3,0.8,0.7,1,1.3c0.5-0.5,1-0.9,1.5-1.3c0.5-0.3,1.1-0.5,1.7-0.5c1,0,1.8,0.3,2.3,1s0.7,1.6,0.7,2.9v6.2h-2.3v-5.9
				c0-0.8-0.1-1.4-0.4-1.7c-0.2-0.3-0.6-0.5-1.1-0.5c-0.6,0-1.3,0.4-2.1,1.2v6.9h-2.3v-5.9c0-0.8-0.1-1.4-0.4-1.7
				c-0.2-0.3-0.6-0.5-1.2-0.5c-0.6,0-1.3,0.4-2.1,1.2v6.9H121z"/>
			<path fill="#1073BA" d="M145.3,115.9c-0.6,0-1.1-0.1-1.4-0.3c-0.4-0.2-0.7-0.4-1-0.7s-0.4-0.7-0.5-1.1c-0.1-0.4-0.2-0.9-0.2-1.5
				v-4.7h-1.4v-1.7l1.5-0.1l0.3-2.7h1.9v2.7h2.5v1.8h-2.5v4.7c0,1.1,0.5,1.7,1.4,1.7c0.2,0,0.3,0,0.5-0.1c0.2,0,0.3-0.1,0.5-0.2
				l0.4,1.7c-0.3,0.1-0.6,0.2-0.9,0.2S145.7,115.9,145.3,115.9z"/>
			<path fill="#1073BA" d="M149.1,115.7v-14.1h2.3v3.6l-0.1,1.9c0.4-0.4,0.9-0.7,1.4-1c0.5-0.3,1.1-0.4,1.8-0.4c1.1,0,1.8,0.3,2.3,1
				s0.7,1.6,0.7,2.9v6.2h-2.3v-5.9c0-0.8-0.1-1.4-0.4-1.7c-0.2-0.3-0.6-0.5-1.2-0.5c-0.4,0-0.8,0.1-1.1,0.3
				c-0.3,0.2-0.7,0.5-1.1,0.9v6.9H149.1z"/>
			<path fill="#1073BA" d="M164.4,115.9c-0.7,0-1.3-0.1-1.9-0.4c-0.6-0.2-1.1-0.6-1.5-1c-0.4-0.4-0.8-1-1-1.6
				c-0.2-0.6-0.4-1.4-0.4-2.2c0-0.8,0.1-1.5,0.4-2.2c0.3-0.6,0.6-1.2,1-1.6c0.4-0.4,0.9-0.8,1.4-1s1.1-0.4,1.7-0.4
				c0.7,0,1.3,0.1,1.8,0.3s0.9,0.5,1.3,1c0.3,0.4,0.6,0.9,0.8,1.5c0.2,0.6,0.3,1.2,0.3,1.9c0,0.2,0,0.4,0,0.6c0,0.2,0,0.4-0.1,0.5
				h-6.2c0.1,0.9,0.4,1.6,0.9,2c0.5,0.5,1.2,0.7,2,0.7c0.4,0,0.8-0.1,1.2-0.2c0.4-0.1,0.7-0.3,1.1-0.5l0.8,1.4
				c-0.5,0.3-1,0.6-1.6,0.8C165.7,115.8,165.1,115.9,164.4,115.9z M161.8,109.8h4.4c0-0.8-0.2-1.4-0.5-1.8s-0.8-0.7-1.5-0.7
				c-0.6,0-1.1,0.2-1.5,0.6C162.2,108.4,161.9,109,161.8,109.8z"/>
			<path fill="#1073BA" d="M55.4,137.3v-8h-1.3v-1.7l1.3-0.1v-1c0-0.5,0.1-1,0.2-1.4c0.1-0.4,0.3-0.8,0.6-1.1c0.3-0.3,0.6-0.6,1-0.7
				c0.4-0.2,0.9-0.3,1.5-0.3c0.3,0,0.7,0,1,0.1s0.6,0.1,0.8,0.2l-0.4,1.7c-0.4-0.2-0.7-0.2-1.1-0.2c-0.8,0-1.2,0.6-1.2,1.7v1.1h1.9
				v1.8h-1.9v8H55.4z"/>
			<path fill="#1073BA" d="M65.2,137.5c-0.6,0-1.2-0.1-1.8-0.3c-0.6-0.2-1.1-0.6-1.5-1c-0.4-0.4-0.8-1-1-1.6
				c-0.3-0.6-0.4-1.4-0.4-2.2c0-0.8,0.1-1.5,0.4-2.2c0.3-0.6,0.6-1.2,1-1.6c0.4-0.4,0.9-0.8,1.5-1c0.6-0.2,1.1-0.3,1.8-0.3
				s1.2,0.1,1.8,0.3s1.1,0.6,1.5,1c0.4,0.4,0.8,1,1,1.6c0.3,0.6,0.4,1.4,0.4,2.2c0,0.8-0.1,1.5-0.4,2.2c-0.3,0.6-0.6,1.2-1,1.6
				c-0.4,0.4-0.9,0.8-1.5,1S65.8,137.5,65.2,137.5z M65.2,135.6c0.7,0,1.3-0.3,1.7-0.9c0.4-0.6,0.6-1.4,0.6-2.4c0-1-0.2-1.8-0.6-2.4
				c-0.4-0.6-1-0.9-1.7-0.9s-1.3,0.3-1.7,0.9c-0.4,0.6-0.6,1.4-0.6,2.4c0,1,0.2,1.8,0.6,2.4C63.9,135.3,64.5,135.6,65.2,135.6z"/>
			<path fill="#1073BA" d="M74.4,137.5c-0.8,0-1.4-0.2-1.7-0.7s-0.5-1.2-0.5-2v-11.6h2.3v11.7c0,0.3,0.1,0.5,0.2,0.6
				c0.1,0.1,0.2,0.2,0.3,0.2c0.1,0,0.1,0,0.2,0s0.1,0,0.2,0l0.3,1.7C75.3,137.4,74.9,137.5,74.4,137.5z"/>
			<path fill="#1073BA" d="M79.8,137.5c-0.8,0-1.4-0.2-1.7-0.7s-0.5-1.2-0.5-2v-11.6h2.3v11.7c0,0.3,0.1,0.5,0.2,0.6
				c0.1,0.1,0.2,0.2,0.3,0.2c0.1,0,0.1,0,0.2,0s0.1,0,0.2,0l0.3,1.7C80.7,137.4,80.3,137.5,79.8,137.5z"/>
			<path fill="#1073BA" d="M87,137.5c-0.6,0-1.2-0.1-1.8-0.3c-0.6-0.2-1.1-0.6-1.5-1c-0.4-0.4-0.8-1-1-1.6c-0.3-0.6-0.4-1.4-0.4-2.2
				c0-0.8,0.1-1.5,0.4-2.2s0.6-1.2,1-1.6c0.4-0.4,0.9-0.8,1.5-1c0.6-0.2,1.1-0.3,1.8-0.3s1.2,0.1,1.8,0.3s1.1,0.6,1.5,1
				c0.4,0.4,0.8,1,1,1.6s0.4,1.4,0.4,2.2c0,0.8-0.1,1.5-0.4,2.2c-0.3,0.6-0.6,1.2-1,1.6c-0.4,0.4-0.9,0.8-1.5,1S87.6,137.5,87,137.5
				z M87,135.6c0.7,0,1.3-0.3,1.7-0.9c0.4-0.6,0.6-1.4,0.6-2.4c0-1-0.2-1.8-0.6-2.4c-0.4-0.6-1-0.9-1.7-0.9c-0.7,0-1.3,0.3-1.7,0.9
				c-0.4,0.6-0.6,1.4-0.6,2.4c0,1,0.2,1.8,0.6,2.4C85.7,135.3,86.3,135.6,87,135.6z"/>
			<path fill="#1073BA" d="M95.5,137.3l-2.6-9.8h2.3l1.2,5.1c0.1,0.5,0.2,0.9,0.3,1.4c0.1,0.5,0.2,0.9,0.2,1.4H97
				c0.1-0.5,0.2-1,0.3-1.4c0.1-0.5,0.2-0.9,0.3-1.4l1.3-5.1h2.1l1.3,5.1c0.1,0.5,0.2,0.9,0.3,1.4c0.1,0.5,0.2,0.9,0.3,1.4h0.1
				c0.1-0.5,0.2-1,0.3-1.4c0.1-0.5,0.2-0.9,0.3-1.4l1.2-5.1h2.2l-2.5,9.8h-2.7l-1.1-4.6c-0.1-0.5-0.2-0.9-0.3-1.4
				c-0.1-0.5-0.2-1-0.3-1.5h-0.1c-0.1,0.5-0.2,1-0.3,1.5c-0.1,0.5-0.2,0.9-0.3,1.4l-1.1,4.6H95.5z"/>
			<path fill="#1073BA" d="M110,125.7c-0.4,0-0.8-0.1-1-0.4c-0.3-0.2-0.4-0.6-0.4-0.9s0.1-0.7,0.4-1c0.3-0.2,0.6-0.4,1-0.4
				c0.4,0,0.8,0.1,1,0.4c0.3,0.2,0.4,0.6,0.4,1s-0.1,0.7-0.4,0.9C110.7,125.6,110.4,125.7,110,125.7z M108.8,137.3v-9.8h2.3v9.8
				H108.8z"/>
			<path fill="#1073BA" d="M114.1,137.3v-9.8h1.9l0.2,1.3h0.1c0.4-0.4,0.9-0.8,1.4-1.1c0.5-0.3,1.1-0.5,1.8-0.5c1.1,0,1.8,0.3,2.3,1
				s0.7,1.6,0.7,2.9v6.2h-2.3v-5.9c0-0.8-0.1-1.4-0.4-1.7c-0.2-0.3-0.6-0.5-1.2-0.5c-0.4,0-0.8,0.1-1.1,0.3
				c-0.3,0.2-0.7,0.5-1.1,0.9v6.9H114.1z"/>
			<path fill="#1073BA" d="M128.7,141.6c-0.6,0-1.1-0.1-1.6-0.2s-0.9-0.3-1.3-0.5c-0.4-0.2-0.6-0.5-0.9-0.8
				c-0.2-0.3-0.3-0.7-0.3-1.1c0-0.4,0.1-0.8,0.4-1.2s0.6-0.7,1-1v-0.1c-0.3-0.2-0.5-0.4-0.6-0.6c-0.2-0.3-0.2-0.6-0.2-1
				c0-0.4,0.1-0.7,0.3-1c0.2-0.3,0.5-0.6,0.8-0.8v-0.1c-0.3-0.3-0.6-0.6-0.9-1c-0.3-0.4-0.4-1-0.4-1.5c0-0.6,0.1-1.1,0.3-1.5
				c0.2-0.4,0.5-0.8,0.9-1.1c0.4-0.3,0.8-0.5,1.2-0.7s1-0.2,1.5-0.2c0.3,0,0.5,0,0.8,0.1c0.2,0,0.5,0.1,0.7,0.2h3.5v1.7H132
				c0.2,0.2,0.3,0.4,0.4,0.7c0.1,0.3,0.2,0.6,0.2,1c0,0.5-0.1,1-0.3,1.4c-0.2,0.4-0.5,0.8-0.8,1c-0.3,0.3-0.7,0.5-1.2,0.6
				c-0.5,0.1-0.9,0.2-1.5,0.2c-0.2,0-0.4,0-0.7-0.1s-0.5-0.1-0.7-0.2c-0.1,0.1-0.3,0.3-0.3,0.4c-0.1,0.1-0.1,0.3-0.1,0.5
				c0,0.3,0.1,0.5,0.3,0.7c0.2,0.2,0.7,0.2,1.2,0.2h1.7c1.2,0,2.1,0.2,2.7,0.6s0.9,1,0.9,1.8c0,0.5-0.1,0.9-0.4,1.4
				c-0.2,0.4-0.6,0.8-1,1.1c-0.5,0.3-1,0.5-1.7,0.7C130.2,141.5,129.5,141.6,128.7,141.6z M129,140.1c0.8,0,1.4-0.2,1.9-0.5
				s0.7-0.7,0.7-1.1c0-0.4-0.2-0.6-0.5-0.8c-0.3-0.1-0.7-0.2-1.3-0.2h-1.3c-0.5,0-1,0-1.3-0.1c-0.5,0.4-0.8,0.8-0.8,1.3
				c0,0.4,0.2,0.8,0.7,1C127.6,140,128.3,140.1,129,140.1z M128.8,132.7c0.5,0,0.9-0.2,1.2-0.5s0.5-0.8,0.5-1.5
				c0-0.6-0.2-1.1-0.5-1.4s-0.7-0.5-1.2-0.5s-0.9,0.2-1.2,0.5c-0.3,0.3-0.5,0.8-0.5,1.4c0,0.6,0.2,1.1,0.5,1.5
				C127.9,132.5,128.3,132.7,128.8,132.7z"/>
			<path fill="#1073BA" d="M143.1,141.6c-0.6,0-1.1-0.1-1.6-0.2s-0.9-0.3-1.3-0.5c-0.4-0.2-0.6-0.5-0.8-0.8
				c-0.2-0.3-0.3-0.7-0.3-1.1c0-0.4,0.1-0.8,0.4-1.2c0.2-0.4,0.6-0.7,1-1v-0.1c-0.3-0.2-0.5-0.4-0.6-0.6c-0.2-0.3-0.2-0.6-0.2-1
				c0-0.4,0.1-0.7,0.3-1c0.2-0.3,0.5-0.6,0.8-0.8v-0.1c-0.3-0.3-0.6-0.6-0.9-1c-0.3-0.4-0.4-1-0.4-1.5c0-0.6,0.1-1.1,0.3-1.5
				c0.2-0.4,0.5-0.8,0.8-1.1c0.4-0.3,0.8-0.5,1.2-0.7c0.5-0.2,1-0.2,1.5-0.2c0.3,0,0.5,0,0.8,0.1c0.2,0,0.5,0.1,0.7,0.2h3.5v1.7
				h-1.8c0.2,0.2,0.3,0.4,0.4,0.7c0.1,0.3,0.2,0.6,0.2,1c0,0.5-0.1,1-0.3,1.4c-0.2,0.4-0.5,0.8-0.8,1c-0.3,0.3-0.7,0.5-1.2,0.6
				s-0.9,0.2-1.5,0.2c-0.2,0-0.4,0-0.7-0.1s-0.5-0.1-0.7-0.2c-0.1,0.1-0.3,0.3-0.4,0.4c-0.1,0.1-0.1,0.3-0.1,0.5
				c0,0.3,0.1,0.5,0.3,0.7c0.2,0.2,0.7,0.2,1.2,0.2h1.7c1.2,0,2.1,0.2,2.7,0.6c0.6,0.4,0.9,1,0.9,1.8c0,0.5-0.1,0.9-0.4,1.4
				s-0.6,0.8-1,1.1s-1,0.5-1.7,0.7C144.6,141.5,143.9,141.6,143.1,141.6z M143.4,140.1c0.8,0,1.4-0.2,1.9-0.5s0.7-0.7,0.7-1.1
				c0-0.4-0.1-0.6-0.4-0.8c-0.3-0.1-0.7-0.2-1.3-0.2H143c-0.5,0-1,0-1.3-0.1c-0.5,0.4-0.8,0.8-0.8,1.3c0,0.4,0.2,0.8,0.7,1
				C142,140,142.7,140.1,143.4,140.1z M143.2,132.7c0.5,0,0.9-0.2,1.2-0.5c0.3-0.3,0.5-0.8,0.5-1.5c0-0.6-0.2-1.1-0.5-1.4
				s-0.7-0.5-1.2-0.5s-0.9,0.2-1.2,0.5c-0.3,0.3-0.5,0.8-0.5,1.4c0,0.6,0.2,1.1,0.5,1.5C142.3,132.5,142.7,132.7,143.2,132.7z"/>
			<path fill="#1073BA" d="M150.1,137.3v-9.8h1.9l0.2,1.7h0.1c0.3-0.6,0.8-1.1,1.3-1.5s1-0.5,1.5-0.5c0.5,0,0.8,0.1,1.1,0.2l-0.4,2
				c-0.2-0.1-0.3-0.1-0.5-0.1c-0.1,0-0.3,0-0.5,0c-0.4,0-0.8,0.1-1.2,0.4c-0.4,0.3-0.8,0.8-1.1,1.6v6H150.1z"/>
			<path fill="#1073BA" d="M161.3,137.5c-0.6,0-1.2-0.1-1.8-0.3c-0.6-0.2-1.1-0.6-1.5-1c-0.4-0.4-0.8-1-1-1.6
				c-0.3-0.6-0.4-1.4-0.4-2.2c0-0.8,0.1-1.5,0.4-2.2c0.3-0.6,0.6-1.2,1-1.6c0.4-0.4,0.9-0.8,1.5-1c0.6-0.2,1.1-0.3,1.8-0.3
				s1.2,0.1,1.8,0.3s1.1,0.6,1.5,1c0.4,0.4,0.8,1,1,1.6c0.3,0.6,0.4,1.4,0.4,2.2c0,0.8-0.1,1.5-0.4,2.2c-0.3,0.6-0.6,1.2-1,1.6
				c-0.4,0.4-0.9,0.8-1.5,1S162,137.5,161.3,137.5z M161.3,135.6c0.7,0,1.3-0.3,1.7-0.9c0.4-0.6,0.6-1.4,0.6-2.4
				c0-1-0.2-1.8-0.6-2.4c-0.4-0.6-1-0.9-1.7-0.9s-1.3,0.3-1.7,0.9c-0.4,0.6-0.6,1.4-0.6,2.4c0,1,0.2,1.8,0.6,2.4
				C160.1,135.3,160.6,135.6,161.3,135.6z"/>
			<path fill="#1073BA" d="M171.2,137.5c-1.1,0-1.8-0.3-2.3-1c-0.5-0.7-0.7-1.6-0.7-2.9v-6.2h2.3v5.9c0,0.8,0.1,1.4,0.4,1.7
				c0.2,0.3,0.6,0.5,1.2,0.5c0.4,0,0.8-0.1,1.1-0.3c0.3-0.2,0.7-0.6,1-1v-6.7h2.3v9.8h-1.9l-0.2-1.4h-0.1c-0.4,0.5-0.9,0.9-1.4,1.2
				S171.9,137.5,171.2,137.5z"/>
			<path fill="#1073BA" d="M179.4,141.1v-13.7h1.9l0.2,1h0.1c0.4-0.3,0.9-0.6,1.4-0.9c0.5-0.3,1-0.4,1.6-0.4c0.6,0,1.2,0.1,1.6,0.3
				c0.5,0.2,0.9,0.6,1.2,1c0.3,0.4,0.6,1,0.8,1.6c0.2,0.6,0.3,1.3,0.3,2.1c0,0.8-0.1,1.6-0.4,2.2c-0.2,0.7-0.5,1.2-0.9,1.7
				c-0.4,0.4-0.8,0.8-1.3,1s-1,0.4-1.6,0.4c-0.4,0-0.9-0.1-1.3-0.3c-0.4-0.2-0.8-0.5-1.2-0.8l0.1,1.6v3.1H179.4z M183.7,135.6
				c0.7,0,1.2-0.3,1.6-0.8s0.7-1.4,0.7-2.5c0-1-0.2-1.8-0.5-2.3c-0.3-0.5-0.9-0.8-1.6-0.8c-0.7,0-1.4,0.4-2.2,1.1v4.6
				c0.4,0.3,0.7,0.5,1,0.6C183.1,135.5,183.4,135.6,183.7,135.6z"/>
			<path fill="#1073BA" d="M193.4,137.5c-0.7,0-1.3-0.1-2-0.4c-0.7-0.3-1.2-0.6-1.7-1l1.1-1.5c0.4,0.3,0.9,0.6,1.3,0.8
				s0.9,0.3,1.4,0.3c0.5,0,0.9-0.1,1.2-0.3c0.3-0.2,0.4-0.5,0.4-0.8c0-0.2-0.1-0.4-0.2-0.5c-0.1-0.2-0.3-0.3-0.5-0.4
				s-0.4-0.2-0.7-0.3c-0.3-0.1-0.5-0.2-0.8-0.3c-0.3-0.1-0.6-0.3-1-0.4c-0.3-0.2-0.6-0.4-0.9-0.6s-0.5-0.5-0.6-0.8s-0.2-0.7-0.2-1.1
				c0-0.9,0.3-1.6,1-2.1c0.6-0.5,1.5-0.8,2.6-0.8c0.7,0,1.3,0.1,1.8,0.4c0.5,0.2,1,0.5,1.4,0.8l-1.1,1.4c-0.3-0.3-0.7-0.5-1.1-0.6
				s-0.7-0.2-1.1-0.2c-0.5,0-0.9,0.1-1.1,0.3c-0.2,0.2-0.3,0.5-0.3,0.8c0,0.2,0.1,0.4,0.2,0.5c0.1,0.1,0.3,0.3,0.4,0.4
				c0.2,0.1,0.4,0.2,0.7,0.3c0.2,0.1,0.5,0.2,0.8,0.3c0.3,0.1,0.7,0.3,1,0.4s0.6,0.3,0.9,0.6s0.5,0.5,0.7,0.8
				c0.2,0.3,0.2,0.7,0.2,1.2c0,0.4-0.1,0.8-0.2,1.2c-0.2,0.4-0.4,0.7-0.7,1c-0.3,0.3-0.7,0.5-1.2,0.7S194,137.5,193.4,137.5z"/>
			<path fill="#1073BA" d="M60.2,162.4c-0.8-1.4-1.5-2.8-2-4.3s-0.7-3.1-0.7-4.9s0.2-3.4,0.7-4.9s1.1-2.9,2-4.3l1.4,0.6
				c-0.8,1.3-1.3,2.7-1.7,4.1c-0.4,1.4-0.5,2.9-0.5,4.4c0,1.5,0.2,2.9,0.5,4.4c0.4,1.4,0.9,2.8,1.7,4.1L60.2,162.4z"/>
			<path fill="#1073BA" d="M68.7,159.1c-0.5,0-0.9-0.1-1.4-0.3c-0.5-0.2-0.9-0.5-1.3-1h-0.1l-0.2,1h-1.8v-14.1h2.3v3.6l-0.1,1.6
				c0.4-0.4,0.9-0.7,1.3-0.9s1-0.3,1.5-0.3c0.6,0,1.2,0.1,1.6,0.3c0.5,0.2,0.9,0.6,1.2,1c0.3,0.4,0.6,1,0.8,1.6
				c0.2,0.6,0.3,1.3,0.3,2.1c0,0.8-0.1,1.6-0.4,2.2c-0.2,0.7-0.5,1.2-0.9,1.7s-0.8,0.8-1.3,1S69.2,159.1,68.7,159.1z M68.2,157.2
				c0.7,0,1.2-0.3,1.6-0.8s0.7-1.4,0.7-2.5c0-1-0.2-1.8-0.5-2.3c-0.3-0.5-0.9-0.8-1.6-0.8c-0.7,0-1.4,0.4-2.2,1.1v4.6
				c0.3,0.3,0.7,0.5,1,0.6S67.9,157.2,68.2,157.2z"/>
			<path fill="#1073BA" d="M75.7,162.9c-0.3,0-0.5,0-0.7,0c-0.2,0-0.4-0.1-0.6-0.2l0.4-1.8c0.1,0,0.2,0.1,0.3,0.1s0.2,0,0.4,0
				c0.5,0,0.9-0.2,1.2-0.5s0.5-0.7,0.7-1.2l0.2-0.6l-3.9-9.7h2.3l1.7,4.8c0.1,0.4,0.3,0.9,0.4,1.3c0.1,0.5,0.3,0.9,0.4,1.4h0.1
				c0.1-0.5,0.2-0.9,0.4-1.4s0.2-0.9,0.4-1.4L81,149h2.2l-3.6,10.3c-0.2,0.6-0.4,1.1-0.7,1.5c-0.2,0.4-0.5,0.8-0.8,1.1
				c-0.3,0.3-0.7,0.6-1.1,0.7C76.7,162.8,76.3,162.9,75.7,162.9z"/>
			<path fill="#1073BA" d="M92.4,159.1c-1.2,0-2.2-0.5-3-1.4c-0.7-0.9-1.1-2.2-1.1-3.8c0-0.8,0.1-1.5,0.3-2.2
				c0.2-0.6,0.5-1.2,0.9-1.6c0.4-0.4,0.8-0.8,1.3-1s1-0.4,1.5-0.4c0.6,0,1,0.1,1.4,0.3s0.8,0.5,1.2,0.8l-0.1-1.6v-3.6h2.3v14.1h-1.9
				l-0.2-1.1h-0.1c-0.4,0.4-0.8,0.7-1.3,0.9C93.4,159,92.9,159.1,92.4,159.1z M93,157.2c0.7,0,1.4-0.4,2.1-1.1v-4.6
				c-0.3-0.3-0.7-0.5-1-0.6c-0.3-0.1-0.7-0.2-1-0.2c-0.6,0-1.2,0.3-1.6,0.8c-0.4,0.6-0.7,1.4-0.7,2.4c0,1.1,0.2,1.9,0.6,2.4
				C91.7,156.9,92.2,157.2,93,157.2z"/>
			<path fill="#1073BA" d="M104.3,159.1c-0.6,0-1.2-0.1-1.8-0.3c-0.6-0.2-1.1-0.6-1.5-1c-0.4-0.4-0.8-1-1-1.6
				c-0.3-0.6-0.4-1.4-0.4-2.2c0-0.8,0.1-1.5,0.4-2.2s0.6-1.2,1-1.6c0.4-0.4,0.9-0.8,1.5-1c0.6-0.2,1.1-0.3,1.8-0.3s1.2,0.1,1.8,0.3
				s1.1,0.6,1.5,1c0.4,0.4,0.8,1,1,1.6s0.4,1.4,0.4,2.2c0,0.8-0.1,1.5-0.4,2.2c-0.3,0.6-0.6,1.2-1,1.6c-0.4,0.4-0.9,0.8-1.5,1
				S104.9,159.1,104.3,159.1z M104.3,157.2c0.7,0,1.3-0.3,1.7-0.9c0.4-0.6,0.6-1.4,0.6-2.4c0-1-0.2-1.8-0.6-2.4
				c-0.4-0.6-1-0.9-1.7-0.9c-0.7,0-1.3,0.3-1.7,0.9c-0.4,0.6-0.6,1.4-0.6,2.4c0,1,0.2,1.8,0.6,2.4
				C103,156.9,103.5,157.2,104.3,157.2z"/>
			<path fill="#1073BA" d="M113.5,159.1c-0.8,0-1.4-0.2-1.7-0.7c-0.3-0.5-0.5-1.2-0.5-2v-11.6h2.3v11.7c0,0.3,0.1,0.5,0.2,0.6
				c0.1,0.1,0.2,0.2,0.3,0.2c0.1,0,0.1,0,0.2,0c0,0,0.1,0,0.2,0l0.3,1.7C114.4,159,114,159.1,113.5,159.1z"/>
			<path fill="#1073BA" d="M118.9,159.1c-0.8,0-1.4-0.2-1.7-0.7c-0.3-0.5-0.5-1.2-0.5-2v-11.6h2.3v11.7c0,0.3,0.1,0.5,0.2,0.6
				c0.1,0.1,0.2,0.2,0.3,0.2c0.1,0,0.1,0,0.2,0c0,0,0.1,0,0.2,0l0.3,1.7C119.8,159,119.4,159.1,118.9,159.1z"/>
			<path fill="#1073BA" d="M124.4,159.1c-0.9,0-1.6-0.3-2.1-0.8c-0.5-0.5-0.8-1.2-0.8-2.1c0-0.5,0.1-1,0.3-1.4c0.2-0.4,0.6-0.8,1-1
				c0.5-0.3,1.1-0.5,1.8-0.7c0.7-0.2,1.6-0.4,2.6-0.5c0-0.3,0-0.5-0.1-0.7s-0.2-0.4-0.3-0.6s-0.3-0.3-0.5-0.4
				c-0.2-0.1-0.5-0.2-0.8-0.2c-0.5,0-1,0.1-1.4,0.3c-0.5,0.2-0.9,0.4-1.3,0.7l-0.8-1.5c0.5-0.3,1.2-0.6,1.8-0.9
				c0.7-0.3,1.4-0.4,2.2-0.4c1.2,0,2.1,0.4,2.8,1.1s0.9,1.8,0.9,3.1v5.8h-1.9l-0.2-1.1h-0.1c-0.4,0.4-0.9,0.7-1.4,0.9
				C125.6,159,125,159.1,124.4,159.1z M125.2,157.3c0.4,0,0.8-0.1,1.1-0.3c0.3-0.2,0.7-0.5,1-0.8V154c-0.7,0.1-1.2,0.2-1.7,0.3
				c-0.5,0.1-0.8,0.3-1.1,0.4c-0.3,0.2-0.5,0.4-0.6,0.6c-0.1,0.2-0.2,0.4-0.2,0.7c0,0.4,0.1,0.8,0.4,1
				C124.4,157.2,124.8,157.3,125.2,157.3z"/>
			<path fill="#1073BA" d="M132.4,158.9V149h1.9l0.2,1.7h0.1c0.3-0.6,0.8-1.1,1.3-1.5c0.5-0.3,1-0.5,1.5-0.5c0.5,0,0.8,0.1,1.1,0.2
				l-0.4,2c-0.2-0.1-0.3-0.1-0.5-0.1c-0.1,0-0.3,0-0.5,0c-0.4,0-0.8,0.1-1.2,0.4c-0.4,0.3-0.8,0.8-1.1,1.6v6H132.4z"/>
			<path fill="#1073BA" d="M146,158.9l-3.4-9.8h2.3l1.6,5.1c0.1,0.5,0.3,1,0.4,1.5c0.1,0.5,0.3,1,0.4,1.5h0.1c0.1-0.5,0.3-1,0.4-1.5
				c0.1-0.5,0.3-1,0.4-1.5l1.6-5.1h2.2l-3.3,9.8H146z"/>
			<path fill="#1073BA" d="M155.7,159.1c-0.9,0-1.6-0.3-2.1-0.8s-0.8-1.2-0.8-2.1c0-0.5,0.1-1,0.3-1.4c0.2-0.4,0.6-0.8,1-1
				c0.5-0.3,1.1-0.5,1.8-0.7c0.7-0.2,1.6-0.4,2.6-0.5c0-0.3-0.1-0.5-0.1-0.7c-0.1-0.2-0.2-0.4-0.3-0.6c-0.1-0.2-0.3-0.3-0.6-0.4
				c-0.2-0.1-0.5-0.2-0.8-0.2c-0.5,0-0.9,0.1-1.4,0.3c-0.5,0.2-0.9,0.4-1.3,0.7l-0.8-1.5c0.5-0.3,1.2-0.6,1.8-0.9
				c0.7-0.3,1.4-0.4,2.2-0.4c1.2,0,2.1,0.4,2.8,1.1c0.6,0.7,0.9,1.8,0.9,3.1v5.8H159l-0.2-1.1h-0.1c-0.4,0.4-0.9,0.7-1.4,0.9
				C156.9,159,156.3,159.1,155.7,159.1z M156.5,157.3c0.4,0,0.8-0.1,1.1-0.3s0.7-0.5,1.1-0.8V154c-0.7,0.1-1.2,0.2-1.7,0.3
				c-0.5,0.1-0.8,0.3-1.1,0.4c-0.3,0.2-0.5,0.4-0.6,0.6c-0.1,0.2-0.2,0.4-0.2,0.7c0,0.4,0.1,0.8,0.4,1
				C155.7,157.2,156.1,157.3,156.5,157.3z"/>
			<path fill="#1073BA" d="M165.9,159.1c-0.8,0-1.4-0.2-1.7-0.7c-0.3-0.5-0.5-1.2-0.5-2v-11.6h2.3v11.7c0,0.3,0.1,0.5,0.2,0.6
				c0.1,0.1,0.2,0.2,0.3,0.2c0.1,0,0.1,0,0.2,0c0,0,0.1,0,0.2,0l0.3,1.7C166.8,159,166.4,159.1,165.9,159.1z"/>
			<path fill="#1073BA" d="M172,159.1c-1.1,0-1.8-0.3-2.3-1c-0.5-0.7-0.7-1.6-0.7-2.9V149h2.3v5.9c0,0.8,0.1,1.4,0.4,1.7
				c0.2,0.3,0.6,0.5,1.2,0.5c0.4,0,0.8-0.1,1.1-0.3c0.3-0.2,0.7-0.6,1-1V149h2.3v9.8h-1.9l-0.2-1.4h-0.1c-0.4,0.5-0.9,0.9-1.4,1.2
				S172.7,159.1,172,159.1z"/>
			<path fill="#1073BA" d="M184.4,159.1c-0.7,0-1.3-0.1-1.9-0.4c-0.6-0.2-1.1-0.6-1.5-1c-0.4-0.4-0.8-1-1-1.6
				c-0.2-0.6-0.4-1.4-0.4-2.2c0-0.8,0.1-1.5,0.4-2.2c0.3-0.6,0.6-1.2,1-1.6c0.4-0.4,0.9-0.8,1.5-1s1.1-0.4,1.7-0.4
				c0.7,0,1.3,0.1,1.8,0.3c0.5,0.2,0.9,0.5,1.3,1c0.3,0.4,0.6,0.9,0.8,1.5c0.2,0.6,0.3,1.2,0.3,1.9c0,0.2,0,0.4,0,0.6s0,0.4-0.1,0.5
				h-6.2c0.1,0.9,0.4,1.6,0.9,2c0.5,0.5,1.2,0.7,2,0.7c0.4,0,0.8-0.1,1.2-0.2c0.4-0.1,0.7-0.3,1.1-0.5l0.8,1.4
				c-0.5,0.3-1,0.6-1.6,0.8C185.6,159,185,159.1,184.4,159.1z M181.8,153h4.4c0-0.8-0.2-1.4-0.5-1.8c-0.3-0.4-0.8-0.7-1.5-0.7
				c-0.6,0-1.1,0.2-1.5,0.6C182.2,151.6,181.9,152.2,181.8,153z"/>
			<path fill="#1073BA" d="M191.2,162.4l-1.4-0.6c0.8-1.3,1.3-2.7,1.7-4.1c0.4-1.4,0.5-2.9,0.5-4.4c0-1.5-0.2-2.9-0.5-4.4
				c-0.4-1.4-0.9-2.8-1.7-4.1l1.4-0.6c0.8,1.4,1.5,2.8,2,4.3c0.5,1.5,0.7,3.1,0.7,4.9s-0.2,3.4-0.7,4.9
				C192.7,159.6,192,161,191.2,162.4z"/>
		</g>
	</g>
</g>
<g id="specs">
</g>
</svg>
