<?xml version="1.0" encoding="utf-8"?>
<!-- Generator: Adobe Illustrator 25.2.0, SVG Export Plug-In . SVG Version: 6.00 Build 0)  -->
<svg version="1.1" xmlns="http://www.w3.org/2000/svg" xmlns:xlink="http://www.w3.org/1999/xlink" x="0px" y="0px"
	 viewBox="0 0 156 132" enable-background="new 0 0 156 132" xml:space="preserve">
<g id="background">
</g>
<g id="Layer_1">
	<g>
		<g>
			<circle fill="#E9E9EA" cx="75.7" cy="66.8" r="59.9"/>
		</g>
		<g>
			<rect x="24.8" y="7.9" fill="#FFFFFF" width="75.6" height="92.6"/>
			<path fill="#2A5183" d="M102.9,103H22.3V5.3h80.7V103z M27.4,97.9h70.5V10.4H27.4V97.9z"/>
		</g>
		<g opacity="0.5">
			<rect x="64.6" y="18.4" fill="#F65038" width="26.9" height="5.1"/>
			<rect x="49.4" y="18.4" fill="#F65038" width="9.4" height="5.1"/>
			<rect x="33.4" y="18.4" fill="#F65038" width="9.4" height="5.1"/>
			<rect x="64.6" y="31.8" fill="#F65038" width="26.9" height="5.1"/>
			<rect x="49.4" y="31.8" fill="#F65038" width="9.4" height="5.1"/>
			<rect x="33.4" y="31.8" fill="#F65038" width="9.4" height="5.1"/>
			<rect x="64.6" y="45.2" fill="#F65038" width="26.9" height="5.1"/>
			<rect x="49.4" y="45.2" fill="#F65038" width="9.4" height="5.1"/>
			<rect x="33.4" y="45.2" fill="#F65038" width="9.4" height="5.1"/>
			<rect x="64.6" y="58.6" fill="#F65038" width="26.9" height="5.1"/>
			<rect x="49.4" y="58.6" fill="#F65038" width="9.4" height="5.1"/>
			<rect x="33.4" y="58.6" fill="#F65038" width="9.4" height="5.1"/>
			<rect x="64.6" y="72" fill="#F65038" width="26.9" height="5.1"/>
			<rect x="49.4" y="72" fill="#F65038" width="9.4" height="5.1"/>
			<rect x="33.4" y="72" fill="#F65038" width="9.4" height="5.1"/>
			<rect x="64.6" y="85.4" fill="#F65038" width="26.9" height="5.1"/>
			<rect x="49.4" y="85.4" fill="#F65038" width="9.4" height="5.1"/>
			<rect x="33.4" y="85.4" fill="#F65038" width="9.4" height="5.1"/>
		</g>
		<g>
			<polyline fill="#FFFFFF" points="77.4,106.7 67.7,106.7 67.7,119.2 137.6,119.2 137.6,106.7 127.3,106.7 			"/>
			<polygon fill="#2A5183" points="140.2,121.8 65.2,121.8 65.2,104.2 77.4,104.2 77.4,109.3 70.3,109.3 70.3,116.7 135.1,116.7 
				135.1,109.3 127.3,109.3 127.3,104.2 140.2,104.2 			"/>
		</g>
		<g>
			<polygon fill="#FFFFFF" points="103.3,37 82.8,63 94.7,63 94.7,108.8 111.9,108.8 111.9,63 123.8,63 			"/>
			<path fill="#2A5183" d="M114.5,111.4H92.1V65.6H77.5l25.8-32.7l25.8,32.7h-14.6V111.4z M97.2,106.3h12.2V60.5h9.2l-15.3-19.3
				L88,60.5h9.2V106.3z"/>
		</g>
	</g>
</g>
<g id="contact">
</g>
</svg>
