<?xml version="1.0" encoding="utf-8"?>
<!-- Generator: Adobe Illustrator 25.2.0, SVG Export Plug-In . SVG Version: 6.00 Build 0)  -->
<svg version="1.1" xmlns="http://www.w3.org/2000/svg" xmlns:xlink="http://www.w3.org/1999/xlink" x="0px" y="0px"
	 viewBox="0 0 156 132" enable-background="new 0 0 156 132" xml:space="preserve">
<g id="background">
</g>
<g id="Layer_1">
	<g>
		<g>
			<circle fill="#E9E9EA" cx="78" cy="66" r="59.9"/>
		</g>
		<g>
			<path fill="#FFFFFF" d="M129.5,92.8H26.5c-1.7,0-3-1.3-3-3V28c0-1.7,1.3-3,3-3h102.9c1.7,0,3,1.3,3,3v61.8
				C132.5,91.4,131.1,92.8,129.5,92.8z"/>
			<path fill="#2A5183" d="M129.5,95.3H26.5c-3.1,0-5.6-2.5-5.6-5.6V28c0-3.1,2.5-5.6,5.6-5.6h102.9c3.1,0,5.6,2.5,5.6,5.6v61.8
				C135,92.8,132.5,95.3,129.5,95.3z M26.5,27.5c-0.3,0-0.5,0.2-0.5,0.5v61.8c0,0.3,0.2,0.5,0.5,0.5h102.9c0.3,0,0.5-0.2,0.5-0.5V28
				c0-0.3-0.2-0.5-0.5-0.5H26.5z"/>
		</g>
		<g>
			<path fill="#BEF381" d="M132.5,78.7H23.5v11c0,1.7,1.3,3,3,3h102.9c1.7,0,3-1.3,3-3V78.7z"/>
			<path fill="#2A5183" d="M129.5,95.3H26.5c-3.1,0-5.5-2.5-5.5-5.5V76.2h114v13.6C135,92.8,132.5,95.3,129.5,95.3z M26.1,81.3v8.5
				c0,0.2,0.2,0.5,0.5,0.5h102.9c0.2,0,0.5-0.2,0.5-0.5v-8.5H26.1z"/>
		</g>
		<g>
			<circle fill="#BEF381" cx="78" cy="52.2" r="21.3"/>
		</g>
		<g>
			<rect x="65" y="92.8" fill="#2A5183" width="5.1" height="13.2"/>
		</g>
		<g>
			<rect x="85.9" y="92.8" fill="#2A5183" width="5.1" height="13.2"/>
		</g>
		<g>
			<rect x="50.7" y="103.4" fill="#2A5183" width="54.6" height="5.1"/>
		</g>
		<g>
			<path fill="#2A5183" d="M89.6,68.6H51.7c-2,0-3.5-1.6-3.5-3.5V39.7c0-2,1.6-3.5,3.5-3.5h37.8c2,0,3.5,1.6,3.5,3.5V65
				C93.1,67,91.5,68.6,89.6,68.6z M53.3,63.5H88V41.2H53.3V63.5z"/>
		</g>
		<g>
			<path fill="#2A5183" d="M105.4,69c-0.5,0-1-0.1-1.5-0.3l-16-7.2V44.2l15.8-8.2c1.1-0.6,2.5-0.5,3.5,0.1c1.1,0.7,1.7,1.8,1.7,3.1
				v26.1c0,1.2-0.6,2.4-1.7,3C106.8,68.8,106.1,69,105.4,69z M93.1,58.2l10.9,4.9V41.7l-10.9,5.6V58.2z"/>
		</g>
	</g>
</g>
<g id="contact">
</g>
</svg>
